<?xml version="1.0" encoding="UTF-8" standalone="no"?>
<!DOCTYPE svg PUBLIC "-//W3C//DTD SVG 20010904//EN"
              "http://www.w3.org/TR/2001/REC-SVG-20010904/DTD/svg10.dtd">

<svg xmlns="http://www.w3.org/2000/svg"
     width="31.8778in" height="33.0222in"
     viewBox="0 0 2869 2972">
  <path id="Imported Path #96"
        fill="none" stroke="black" stroke-width="1"
        d="M 166.02,794.38
           C 166.27,787.30 172.54,781.06 179.62,780.83
             186.36,780.62 193.62,785.77 193.33,792.62
             193.02,800.22 197.23,804.17 201.69,808.62
             241.04,847.96 280.48,887.20 319.60,926.77
             325.19,932.43 330.80,934.81 338.78,934.80
             487.37,934.59 635.97,934.75 784.56,934.42
             795.53,934.40 803.32,937.63 810.80,945.48
             828.95,964.53 847.89,982.83 866.46,1001.48
             870.02,1005.06 873.42,1007.91 879.08,1008.41
             886.68,1009.08 891.66,1016.18 890.92,1023.16
             890.20,1029.89 884.20,1035.56 877.50,1035.83
             870.78,1035.55 864.20,1031.33 863.58,1024.15
             863.09,1018.55 860.43,1015.05 856.81,1011.45
             838.37,993.14 819.85,974.91 801.77,956.24
             796.46,950.76 790.98,948.62 783.38,948.63
             635.45,948.44 487.53,948.63 339.60,948.24
             327.30,948.21 318.47,944.89 309.82,936.06
             270.42,895.84 230.38,856.24 190.55,816.44
             186.36,812.26 182.60,808.00 175.84,807.02
             169.68,806.13 165.81,799.54 166.02,793.60
             166.02,793.60 166.02,794.38 166.02,794.38 Z
           M 1258.97,1393.68
           C 1258.68,1404.30 1247.62,1411.31 1238.87,1405.99
             1232.95,1402.39 1227.18,1402.01 1220.87,1402.01
             1156.59,1401.98 1092.32,1401.89 1028.04,1401.83
             1018.99,1401.79 1012.36,1399.20 1006.06,1392.69
             987.08,1373.06 967.46,1354.05 948.33,1334.57
             944.03,1330.19 939.55,1328.28 933.38,1328.34
             905.74,1328.09 878.09,1328.18 850.45,1328.27
             845.66,1328.25 841.56,1327.30 837.35,1331.89
             830.56,1336.17 823.02,1334.39 818.73,1328.48
             814.57,1322.76 815.26,1315.21 820.39,1310.33
             825.85,1305.14 832.92,1304.64 839.19,1310.38
             842.91,1313.79 846.65,1314.18 851.00,1314.18
             879.31,1314.16 907.62,1314.40 935.93,1314.03
             944.27,1313.92 950.38,1316.56 956.17,1322.51
             975.45,1342.32 995.25,1361.60 1014.61,1381.33
             1018.93,1385.73 1023.43,1387.52 1029.57,1387.51
             1093.85,1387.34 1158.12,1387.36 1222.40,1387.48
             1227.99,1387.49 1232.50,1386.42 1236.82,1382.37
             1241.01,1378.43 1246.64,1378.52 1251.76,1381.38
             1256.51,1384.03 1258.67,1388.39 1258.94,1393.20
             1258.94,1393.20 1258.97,1393.68 1258.97,1393.68 Z
           M 1077.43,2275.91
           C 1107.41,2275.91 1137.38,2275.77 1167.36,2276.03
             1173.53,2276.08 1177.96,2274.17 1182.30,2269.81
             1221.98,2229.87 1261.78,2190.06 1301.73,2150.40
             1305.77,2146.39 1307.52,2141.93 1308.88,2136.69
             1310.41,2130.80 1315.79,2127.11 1321.41,2126.88
             1326.89,2126.65 1332.73,2130.48 1334.80,2135.66
             1336.93,2140.98 1335.56,2147.60 1331.10,2151.14
             1329.10,2152.72 1326.31,2154.51 1324.04,2154.32
             1317.35,2153.76 1313.74,2157.91 1309.72,2161.94
             1270.18,2201.54 1230.47,2240.98 1191.15,2280.79
             1184.52,2287.50 1177.65,2290.26 1168.25,2290.21
             1109.30,2289.88 1050.33,2290.14 991.37,2289.92
             984.51,2289.89 979.43,2291.70 974.74,2296.78
             966.85,2305.35 958.43,2313.44 950.07,2321.56
             946.14,2325.38 943.58,2329.10 943.42,2335.23
             943.18,2344.48 933.88,2349.98 925.54,2346.99
             919.94,2344.98 916.09,2339.84 915.96,2334.18
             915.82,2328.22 919.70,2321.77 925.92,2320.86
             932.29,2319.93 935.90,2316.03 939.88,2312.08
             949.80,2302.21 959.82,2292.44 969.52,2282.36
             974.02,2277.68 979.03,2275.80 985.49,2275.84
             1016.14,2276.04 1046.78,2275.93 1077.43,2275.93
             1077.43,2275.93 1077.43,2275.91 1077.43,2275.91
             1077.43,2275.91 1077.43,2275.91 1077.43,2275.91 Z
           M 1333.67,1770.90
           C 1333.28,1769.91 1332.96,1775.00 1331.24,1776.62
             1326.66,1780.91 1327.15,1786.18 1327.15,1791.48
             1327.15,1876.78 1326.99,1962.10 1327.34,2047.40
             1327.38,2057.58 1324.28,2064.86 1317.07,2071.94
             1286.13,2102.26 1255.71,2133.09 1225.04,2163.69
             1220.79,2167.93 1217.06,2171.90 1216.36,2178.67
             1215.61,2185.88 1208.61,2190.40 1202.00,2189.85
             1195.10,2189.28 1189.59,2183.63 1189.21,2176.74
             1188.80,2169.18 1193.24,2163.20 1201.35,2162.38
             1206.21,2161.89 1209.27,2159.69 1212.39,2156.57
             1243.93,2124.97 1275.47,2093.36 1307.15,2061.90
             1311.21,2057.87 1313.10,2053.65 1313.09,2047.85
             1312.95,1961.88 1312.94,1875.90 1313.06,1789.93
             1313.05,1784.15 1310.84,1779.95 1307.81,1775.42
             1304.44,1770.39 1305.55,1764.15 1309.50,1759.70
             1313.40,1755.30 1319.60,1753.81 1324.94,1755.99
             1330.53,1758.27 1333.83,1763.29 1333.63,1770.92
             1333.63,1770.92 1333.67,1770.90 1333.67,1770.90 Z
           M 1335.71,1220.21
           C 1335.46,1230.86 1323.68,1237.88 1315.02,1231.49
             1308.92,1226.98 1302.91,1226.83 1296.31,1226.82
             1275.01,1226.80 1253.69,1226.55 1232.38,1226.70
             1224.45,1226.56 1218.59,1224.39 1212.98,1218.73
             1170.77,1176.17 1128.23,1133.95 1086.03,1091.38
             1080.72,1086.02 1075.41,1083.56 1067.75,1083.63
             1029.12,1083.27 990.49,1083.47 951.87,1083.46
             946.24,1083.46 940.94,1083.30 935.56,1086.70
             929.25,1090.31 921.82,1085.98 918.16,1081.56
             914.44,1075.61 915.69,1068.07 921.14,1063.57
             926.73,1058.95 933.87,1058.56 939.15,1064.28
             943.43,1068.90 948.03,1069.33 953.45,1069.32
             992.74,1069.26 1032.03,1069.53 1071.33,1069.12
             1080.43,1069.02 1086.88,1071.98 1093.20,1078.37
             1135.12,1120.74 1177.46,1162.70 1219.42,1205.04
             1224.55,1210.21 1229.70,1212.36 1236.94,1212.21
             1257.58,1211.79 1278.23,1212.04 1298.87,1212.08
             1304.54,1212.08 1309.83,1212.14 1314.66,1207.74
             1318.58,1204.16 1324.03,1204.60 1328.75,1207.26
             1333.49,1209.93 1335.84,1214.13 1335.71,1219.63
             1335.71,1219.63 1335.71,1220.21 1335.71,1220.21 Z
           M 719.75,2280.12
           C 720.96,2280.61 724.25,2281.10 726.26,2282.97
             730.14,2286.58 734.52,2286.70 739.23,2286.69
             782.89,2286.66 826.56,2286.55 870.21,2286.80
             876.76,2286.84 881.46,2284.87 885.95,2280.17
             897.23,2268.37 909.22,2257.23 920.41,2245.35
             926.36,2239.03 932.86,2236.47 941.57,2236.53
             991.22,2236.84 1040.89,2236.66 1090.55,2236.70
             1096.54,2236.70 1101.95,2236.63 1107.03,2231.87
             1112.48,2226.76 1120.03,2228.09 1125.00,2233.33
             1129.66,2238.24 1130.21,2245.24 1126.35,2250.77
             1122.40,2256.44 1114.61,2259.06 1108.73,2254.95
             1102.61,2250.67 1096.32,2250.85 1089.72,2250.84
             1041.72,2250.82 993.72,2250.72 945.74,2250.70
             938.18,2250.66 932.54,2252.63 927.28,2258.23
             916.11,2270.13 904.05,2281.20 892.85,2293.08
             887.34,2298.93 881.31,2301.01 873.40,2300.96
             830.08,2300.69 786.75,2300.84 743.42,2300.82
             736.78,2300.82 730.51,2300.59 724.74,2305.67
             720.13,2309.73 713.75,2308.41 709.08,2304.52
             704.51,2300.71 702.87,2294.65 704.95,2289.20
             707.12,2283.50 712.00,2280.11 719.75,2280.13
             719.75,2280.13 719.75,2280.12 719.75,2280.12 Z
           M 1430.99,750.81
           C 1430.99,721.49 1430.78,692.17 1430.84,662.85
             1430.75,655.54 1428.67,650.35 1423.44,645.36
             1410.66,633.17 1398.56,620.28 1385.81,608.06
             1380.56,603.03 1378.53,597.56 1378.58,590.37
             1378.34,554.72 1378.51,519.07 1378.44,483.42
             1378.43,477.37 1378.21,471.99 1373.43,466.96
             1368.46,461.73 1369.77,453.69 1374.74,448.90
             1379.93,443.90 1387.32,443.51 1392.94,447.94
             1398.44,452.28 1400.26,459.53 1396.15,465.76
             1393.16,470.30 1392.52,474.78 1392.53,479.85
             1392.60,515.17 1392.69,550.49 1392.45,585.80
             1392.41,592.27 1394.15,597.07 1398.90,601.61
             1411.43,613.57 1423.25,626.28 1435.83,638.18
             1442.14,644.14 1444.74,650.59 1444.70,659.30
             1444.42,718.61 1444.56,777.92 1444.53,837.22
             1444.53,842.91 1444.77,847.94 1449.27,852.73
             1454.39,858.19 1453.18,865.70 1448.07,870.73
             1443.14,875.58 1435.23,876.01 1429.81,871.74
             1424.40,867.48 1422.44,859.97 1426.68,853.87
             1430.28,848.69 1430.44,843.44 1430.43,837.78
             1430.41,808.79 1430.43,779.80 1430.43,750.82
             1430.43,750.82 1430.99,750.81 1430.99,750.81 Z
           M 1048.95,1113.99
           C 1049.22,1125.02 1037.84,1132.37 1028.53,1126.79
             1022.61,1123.24 1016.85,1122.76 1010.52,1122.77
             979.22,1122.72 947.90,1122.35 916.61,1122.51
             905.05,1122.26 896.63,1119.58 888.53,1111.11
             865.51,1087.05 841.53,1063.91 818.14,1040.20
             813.66,1035.66 809.15,1033.32 802.50,1033.36
             760.87,1033.07 719.23,1033.19 677.61,1033.24
             672.88,1033.24 668.88,1032.67 664.93,1037.38
             658.78,1042.94 651.42,1042.20 646.11,1036.81
             641.13,1031.76 640.68,1024.20 645.04,1018.62
             649.54,1012.85 656.92,1011.25 663.75,1015.82
             668.35,1018.90 672.96,1019.12 677.94,1019.12
             719.90,1019.12 761.87,1019.37 803.83,1018.93
             813.32,1018.83 820.03,1021.81 826.58,1028.53
             850.50,1053.11 875.03,1077.11 899.14,1101.51
             903.39,1105.81 907.63,1108.07 913.91,1108.02
             947.21,1107.74 980.52,1107.83 1013.82,1107.95
             1018.70,1107.97 1022.65,1107.04 1026.37,1103.45
             1030.53,1099.43 1035.89,1098.96 1041.21,1101.72
             1046.07,1104.24 1048.40,1108.43 1048.95,1113.22
             1048.95,1113.22 1048.95,1113.99 1048.95,1113.99 Z
           M 887.02,202.31
           C 887.02,188.65 886.97,174.99 887.00,161.33
             886.98,156.60 886.39,152.48 883.23,148.37
             878.09,141.70 879.07,134.64 884.62,129.57
             889.71,124.92 897.65,124.78 902.90,129.25
             908.44,133.97 909.78,141.79 904.81,148.03
             901.50,152.18 901.13,156.33 901.13,161.01
             901.13,186.66 901.33,212.32 901.00,237.97
             900.92,244.52 903.00,249.14 907.60,253.71
             962.14,308.00 1016.37,362.59 1071.05,416.73
             1078.71,424.32 1083.07,431.87 1082.07,442.91
             1081.20,452.49 1081.90,462.22 1081.89,471.88
             1081.89,478.50 1081.46,484.80 1087.20,490.27
             1091.30,494.18 1090.74,500.18 1087.62,505.14
             1084.53,510.07 1079.84,512.37 1074.01,511.64
             1068.30,510.93 1063.12,506.47 1062.47,500.72
             1062.09,497.34 1062.32,493.03 1064.51,490.42
             1067.59,486.19 1067.73,481.86 1067.73,477.20
             1067.73,465.87 1067.38,454.53 1067.60,443.23
             1067.31,436.33 1065.59,431.44 1060.72,426.60
             1011.11,377.28 961.71,327.75 912.24,278.29
             905.88,271.93 899.71,265.36 893.11,259.26
             888.30,254.82 886.49,249.74 886.63,243.28
             886.33,229.63 886.54,215.96 886.54,202.30
             886.54,202.30 887.02,202.31 887.02,202.31 Z
           M 1167.92,867.85
           C 1167.92,873.51 1167.93,879.17 1167.92,884.83
             1167.90,891.45 1167.64,897.63 1173.16,903.23
             1178.05,908.19 1176.31,916.63 1171.20,921.19
             1166.41,925.47 1158.78,925.80 1153.66,920.42
             1148.39,916.47 1145.76,908.96 1149.59,903.64
             1154.20,897.25 1153.71,890.58 1153.75,883.68
             1153.70,873.02 1153.40,862.35 1153.61,851.72
             1153.29,844.82 1151.61,839.93 1146.74,835.09
             1101.39,790.03 1056.43,744.58 1010.88,699.71
             1002.61,691.56 999.02,683.30 999.26,671.67
             998.59,638.38 999.03,605.07 999.02,571.77
             999.02,566.44 998.78,561.63 994.94,556.91
             990.27,551.18 991.83,543.55 997.02,538.94
             1002.38,534.18 1009.83,534.11 1015.23,538.75
             1020.59,543.36 1022.26,550.86 1017.65,556.64
             1013.46,561.90 1013.12,567.34 1013.14,573.38
             1013.21,606.01 1013.39,638.66 1013.01,671.29
             1012.92,679.28 1015.49,684.90 1021.12,690.48
             1066.75,735.73 1111.97,781.41 1157.70,826.56
             1164.75,833.52 1168.20,840.61 1167.25,850.33
             1166.74,855.61 1167.16,860.98 1167.16,866.30
             1167.16,866.30 1167.92,867.85 1167.92,867.85 Z
           M 416.33,656.83
           C 422.72,657.02 428.98,661.64 429.34,668.39
             429.67,674.59 433.08,678.05 436.84,681.80
             483.73,728.68 530.69,775.49 577.37,822.58
             582.80,828.05 588.31,830.10 595.83,830.02
             625.48,829.69 655.14,830.09 684.78,829.76
             692.74,829.67 698.68,832.06 704.12,837.90
             713.89,848.37 724.33,858.21 734.39,868.41
             737.95,872.02 741.32,874.98 747.06,875.10
             753.18,875.22 757.57,879.09 759.29,885.20
             761.29,892.33 757.22,899.79 750.35,901.99
             743.23,904.27 734.83,901.18 733.43,893.86
             731.62,884.40 725.23,879.04 719.23,872.99
             711.72,865.42 703.88,858.16 696.71,850.28
             692.25,845.37 687.30,843.86 680.87,843.91
             651.56,843.66 622.23,843.64 592.92,843.60
             583.01,843.40 576.08,840.46 569.25,833.57
             522.36,786.23 475.12,739.22 428.01,692.09
             423.79,687.87 419.93,683.99 413.04,683.47
             405.66,682.91 400.95,675.03 402.19,668.06
             403.38,661.32 409.71,656.02 416.32,656.21
             416.32,656.21 416.33,656.83 416.33,656.83 Z
           M 1478.98,416.78
           C 1483.85,417.01 1488.16,419.20 1490.93,423.87
             1493.73,428.59 1494.22,434.01 1490.58,437.92
             1485.59,443.27 1485.89,449.31 1485.90,455.62
             1485.91,479.27 1486.09,502.93 1485.78,526.57
             1485.70,533.07 1487.61,537.84 1492.28,542.41
             1512.97,562.71 1533.20,583.46 1553.94,603.71
             1559.62,609.26 1562.08,615.11 1562.04,623.07
             1561.77,672.38 1561.93,721.68 1561.89,770.99
             1561.89,776.71 1562.25,781.77 1566.69,786.52
             1571.68,791.86 1570.64,799.72 1565.78,804.61
             1560.96,809.46 1552.88,810.02 1547.50,805.86
             1542.00,801.62 1539.87,794.03 1544.10,788.10
             1547.59,783.21 1547.76,778.32 1547.76,773.02
             1547.76,724.38 1547.64,675.75 1547.62,627.10
             1547.58,620.20 1545.53,615.30 1540.65,610.51
             1519.94,590.23 1499.71,569.48 1479.00,549.21
             1473.56,543.88 1471.30,538.18 1471.38,530.62
             1471.09,504.64 1471.31,478.65 1471.24,452.67
             1471.23,447.61 1470.53,443.29 1467.32,438.77
             1460.68,429.42 1466.96,417.23 1478.44,416.77
             1478.44,416.77 1478.98,416.78 1478.98,416.78 Z
           M 1273.18,14.06
           C 1283.40,14.20 1290.47,24.99 1285.09,33.81
             1281.48,39.75 1281.12,45.51 1281.12,51.81
             1281.15,94.44 1281.40,137.07 1280.92,179.70
             1280.82,188.86 1283.54,195.26 1290.15,201.41
             1302.83,213.20 1314.62,225.93 1327.08,237.95
             1332.02,242.72 1334.01,247.94 1333.97,254.77
             1333.77,293.07 1333.90,331.37 1333.85,369.67
             1333.85,374.73 1334.35,379.18 1337.78,383.59
             1342.82,390.06 1341.61,397.48 1335.98,402.33
             1330.61,406.95 1323.06,406.89 1317.75,402.19
             1312.33,397.39 1311.25,389.83 1316.20,383.35
             1319.13,379.52 1319.77,375.75 1319.77,371.34
             1319.73,333.71 1319.64,296.07 1319.69,258.44
             1319.66,252.60 1317.79,248.46 1313.68,244.47
             1300.31,231.47 1287.40,217.99 1273.98,205.05
             1268.76,200.02 1266.69,194.58 1266.72,187.38
             1266.50,143.09 1266.61,98.79 1266.61,54.49
             1266.61,47.56 1266.09,40.87 1261.12,35.19
             1257.33,31.60 1257.87,25.89 1260.47,21.14
             1263.08,16.37 1267.28,13.99 1272.78,14.06
             1272.78,14.06 1273.18,14.06 1273.18,14.06 Z
           M 1241.44,1354.80
           C 1205.80,1354.80 1170.17,1354.77 1134.53,1354.77
             1128.50,1354.76 1123.12,1354.56 1118.08,1359.77
             1112.87,1364.73 1104.80,1363.43 1100.02,1358.49
             1095.06,1353.37 1094.67,1345.86 1099.06,1340.30
             1103.40,1334.80 1110.74,1332.88 1116.85,1337.10
             1121.73,1340.47 1126.63,1340.67 1131.95,1340.67
             1205.21,1340.66 1278.48,1340.81 1351.73,1340.48
             1361.48,1340.44 1368.62,1343.15 1375.48,1350.23
             1398.89,1374.38 1422.92,1397.93 1446.68,1421.73
             1449.98,1425.04 1453.19,1427.71 1458.38,1428.45
             1466.28,1429.58 1470.46,1436.05 1469.61,1443.56
             1468.88,1450.02 1463.58,1455.19 1457.04,1455.80
             1450.05,1455.14 1442.80,1451.44 1442.36,1443.82
             1441.99,1437.36 1438.81,1433.52 1434.76,1429.48
             1412.11,1406.92 1389.42,1384.39 1367.02,1361.59
             1362.21,1356.70 1357.20,1354.63 1350.35,1354.68
             1314.05,1354.42 1277.76,1354.56 1241.46,1354.56
             1241.46,1354.56 1241.44,1354.80 1241.44,1354.80 Z
           M 1335.82,888.07
           C 1341.33,888.03 1345.50,890.47 1348.08,895.25
             1350.65,900.01 1351.11,905.66 1347.33,909.31
             1341.73,914.72 1341.85,920.95 1341.88,927.64
             1341.98,945.97 1342.14,964.30 1341.80,982.62
             1341.68,989.14 1343.69,993.87 1348.32,998.45
             1376.52,1026.32 1404.33,1054.59 1432.63,1082.37
             1438.86,1088.49 1441.34,1094.89 1441.28,1103.55
             1440.95,1146.87 1441.15,1190.18 1441.11,1233.50
             1441.11,1238.55 1441.50,1242.90 1445.39,1247.15
             1450.92,1253.19 1449.97,1260.73 1444.46,1265.93
             1439.61,1270.50 1432.48,1271.04 1427.03,1267.24
             1421.04,1263.06 1418.92,1255.27 1423.30,1248.71
             1426.56,1243.84 1427.01,1238.98 1427.01,1233.62
             1426.98,1191.64 1426.84,1149.65 1426.89,1107.67
             1426.84,1100.12 1424.85,1094.60 1419.38,1089.22
             1391.34,1061.66 1363.79,1033.59 1335.78,1006.00
             1329.86,1000.17 1327.21,994.01 1327.38,985.69
             1326.97,965.04 1327.23,944.37 1327.26,923.72
             1327.26,918.43 1326.82,913.64 1323.65,908.63
             1317.80,899.36 1324.66,888.14 1335.32,888.07
             1335.32,888.07 1335.82,888.07 1335.82,888.07 Z
           M 1387.90,1195.74
           C 1387.90,1222.07 1388.09,1248.40 1387.78,1274.73
             1387.70,1281.28 1389.77,1285.98 1394.39,1290.53
             1416.95,1312.75 1439.26,1335.20 1461.59,1357.65
             1465.21,1361.29 1468.50,1363.79 1474.45,1363.12
             1482.00,1362.27 1488.10,1368.34 1488.88,1375.48
             1489.56,1381.70 1485.13,1388.29 1479.06,1390.10
             1471.93,1392.22 1465.41,1388.78 1461.80,1381.77
             1459.58,1377.46 1457.03,1373.06 1453.66,1369.65
             1430.04,1345.68 1406.32,1321.78 1382.24,1298.26
             1375.98,1292.15 1373.57,1285.69 1373.61,1277.04
             1373.32,1225.71 1373.61,1174.38 1373.30,1123.06
             1373.25,1115.40 1371.11,1109.90 1365.56,1104.75
             1355.79,1095.69 1346.56,1086.04 1337.20,1076.55
             1333.65,1072.95 1330.27,1069.94 1324.60,1069.53
             1318.53,1069.09 1314.24,1065.15 1312.84,1058.88
             1311.22,1051.60 1315.55,1044.39 1322.52,1042.49
             1329.74,1040.53 1338.11,1043.98 1339.05,1051.36
             1340.30,1061.16 1346.83,1066.36 1352.81,1072.41
             1361.95,1081.65 1371.00,1090.99 1380.43,1099.93
             1385.41,1104.65 1387.44,1109.89 1387.37,1116.73
             1387.11,1143.06 1387.27,1169.39 1387.27,1195.72
             1387.27,1195.72 1387.90,1195.74 1387.90,1195.74 Z
           M 982.97,1456.02
           C 982.90,1462.70 977.43,1468.80 970.68,1469.74
             964.07,1468.82 956.32,1466.18 955.87,1459.35
             955.39,1452.07 951.27,1447.98 946.81,1443.53
             930.31,1427.07 913.70,1410.71 897.46,1394.01
             893.13,1389.56 888.64,1387.90 882.52,1387.93
             827.60,1387.74 772.66,1387.87 717.73,1387.66
             708.36,1387.60 701.26,1385.30 694.85,1378.29
             684.98,1367.49 674.26,1357.46 663.91,1347.10
             660.39,1343.58 657.01,1340.52 651.53,1339.50
             644.21,1338.14 640.52,1331.71 641.33,1324.57
             640.56,1317.82 648.15,1312.36 654.93,1312.30
             661.57,1312.24 668.70,1317.39 668.52,1324.36
             668.33,1331.92 672.46,1335.88 676.92,1340.32
             685.65,1349.00 694.57,1357.52 702.96,1366.52
             707.65,1371.55 712.73,1373.49 719.61,1373.46
             773.21,1373.23 826.82,1373.63 880.41,1373.11
             891.95,1373.00 900.45,1375.92 908.45,1384.51
             924.77,1402.05 942.19,1418.56 959.09,1435.56
             962.44,1438.93 965.77,1441.34 970.96,1441.83
             978.23,1442.52 983.06,1448.77 982.98,1455.47
             982.98,1455.47 982.97,1456.02 982.97,1456.02 Z
           M 641.76,893.79
           C 641.79,904.05 631.00,911.48 622.27,906.07
             615.97,902.17 609.85,902.03 603.26,902.03
             531.63,902.01 460.01,901.99 388.39,901.98
             364.10,901.95 369.83,904.28 352.80,887.46
             341.19,875.99 329.67,864.42 318.17,852.83
             314.85,849.49 311.55,846.95 306.41,846.21
             298.89,845.13 294.88,839.17 295.27,831.96
             294.89,825.11 301.21,819.42 308.07,818.86
             314.68,818.33 322.12,823.02 322.34,830.06
             322.59,837.89 327.11,842.05 331.79,846.71
             343.58,858.48 355.48,870.14 367.06,882.11
             371.08,886.27 375.40,887.95 381.15,887.94
             456.11,887.81 531.06,887.83 606.02,887.91
             611.24,887.91 615.54,886.97 619.53,883.10
             623.74,879.02 629.27,878.97 634.44,881.62
             639.26,884.09 641.75,888.26 641.77,893.77
             641.77,893.77 641.76,893.79 641.76,893.79 Z
           M 913.93,523.32
           C 913.93,554.30 914.10,585.27 913.80,616.24
             913.73,623.14 915.41,628.58 920.86,632.81
             921.90,633.62 922.75,634.68 923.70,635.62
             928.38,640.24 932.55,644.77 940.15,645.62
             948.17,646.52 952.44,654.86 950.45,662.17
             948.48,669.41 941.77,673.69 934.40,672.40
             928.65,671.40 923.90,667.35 923.54,661.02
             923.22,655.30 920.20,651.98 916.68,648.38
             896.90,628.17 899.92,636.34 899.84,607.77
             899.68,550.15 899.69,492.53 899.76,434.91
             899.73,427.74 898.10,422.35 892.69,417.34
             881.95,407.39 871.83,396.75 861.50,386.37
             857.05,381.90 852.89,377.94 845.74,377.08
             837.70,376.12 833.60,368.18 835.38,360.52
             837.01,353.49 844.06,348.90 851.38,350.28
             857.66,351.46 862.01,355.58 862.35,361.63
             862.70,367.80 866.15,371.28 869.92,375.04
             881.70,386.81 893.17,398.91 905.36,410.24
             911.82,416.24 914.04,422.77 913.93,431.41
             913.53,462.05 913.77,492.69 913.78,523.33
             913.78,523.33 913.93,523.32 913.93,523.32 Z
           M 1441.41,1778.25
           C 1441.30,1777.30 1441.18,1780.16 1441.07,1781.11
             1434.20,1787.82 1427.26,1794.48 1420.44,1801.26
             1406.98,1814.64 1393.60,1828.11 1380.16,1841.50
             1376.85,1844.80 1374.21,1848.08 1373.21,1853.14
             1371.71,1860.74 1364.36,1865.00 1357.46,1863.61
             1350.69,1862.24 1345.58,1855.87 1345.94,1849.24
             1345.55,1842.08 1351.73,1836.40 1359.74,1836.27
             1364.64,1836.19 1367.77,1834.28 1370.94,1831.07
             1387.10,1814.74 1403.30,1798.45 1419.70,1782.35
             1423.58,1778.54 1425.10,1774.47 1425.09,1769.09
             1424.96,1708.49 1424.96,1647.89 1425.09,1587.29
             1425.08,1582.30 1423.28,1578.46 1420.87,1574.36
             1417.94,1569.38 1418.46,1564.06 1422.05,1559.38
             1425.67,1554.66 1430.65,1553.18 1436.29,1554.47
             1442.06,1555.79 1446.06,1559.80 1446.40,1565.46
             1446.63,1569.37 1445.23,1574.21 1442.81,1577.23
             1440.02,1580.71 1439.12,1584.00 1439.12,1588.09
             1439.16,1648.36 1439.12,1708.63 1439.27,1768.89
             1439.27,1772.01 1440.67,1775.13 1441.42,1778.24
             1441.42,1778.24 1441.41,1778.25 1441.41,1778.25 Z
           M 1398.95,1508.02
           C 1398.88,1514.70 1393.41,1520.80 1386.65,1521.74
             1380.04,1520.82 1372.29,1518.18 1371.84,1511.36
             1371.36,1504.08 1367.24,1499.99 1362.78,1495.54
             1350.28,1483.07 1337.70,1470.70 1325.41,1458.04
             1321.45,1453.96 1317.37,1451.91 1311.49,1451.92
             1251.58,1451.74 1191.65,1451.79 1131.74,1451.87
             1126.88,1451.87 1123.10,1450.88 1119.39,1456.61
             1113.87,1462.20 1105.77,1461.80 1100.50,1456.36
             1095.63,1451.80 1094.64,1444.69 1098.08,1439.06
             1101.89,1432.84 1109.45,1430.29 1116.27,1434.13
             1121.28,1436.95 1126.26,1437.28 1131.59,1437.28
             1191.50,1437.27 1251.43,1437.44 1311.34,1437.10
             1320.70,1437.05 1327.72,1439.45 1334.23,1446.39
             1347.43,1460.47 1361.44,1473.78 1375.04,1487.50
             1378.39,1490.87 1381.72,1493.28 1386.91,1493.77
             1394.18,1494.45 1399.02,1500.71 1398.95,1507.41
             1398.95,1507.41 1398.95,1508.02 1398.95,1508.02 Z
           M 1393.90,862.27
           C 1393.90,891.90 1394.06,921.53 1393.78,951.16
             1393.72,958.00 1395.71,963.08 1400.66,967.84
             1414.33,981.00 1427.59,994.58 1440.99,1008.00
             1444.05,1011.06 1447.08,1013.54 1451.79,1014.47
             1459.56,1016.01 1463.91,1022.97 1462.75,1029.90
             1461.61,1036.65 1455.36,1041.98 1448.72,1041.84
             1441.58,1041.70 1435.47,1036.25 1435.36,1028.45
             1435.29,1023.18 1433.18,1019.82 1429.74,1016.42
             1415.52,1002.39 1401.61,988.04 1387.25,974.17
             1381.78,968.89 1379.64,963.10 1379.66,955.56
             1379.47,896.30 1379.58,837.04 1379.53,777.78
             1379.53,772.06 1379.22,767.11 1374.30,762.61
             1369.05,757.81 1369.81,749.57 1374.19,744.51
             1378.56,739.71 1386.00,738.60 1391.53,741.92
             1397.51,745.52 1400.56,752.99 1396.97,759.12
             1393.30,765.38 1393.42,771.75 1393.42,778.36
             1393.40,806.33 1393.42,834.29 1393.42,862.26
             1393.42,862.26 1393.90,862.27 1393.90,862.27 Z
           M 406.53,2316.82
           C 389.88,2316.82 373.24,2316.78 356.59,2316.80
             351.21,2316.78 346.46,2316.30 341.77,2321.04
             335.55,2326.00 327.80,2324.33 323.15,2318.49
             318.98,2313.25 319.05,2306.17 322.96,2301.03
             327.62,2295.43 335.50,2293.97 341.73,2298.88
             346.17,2302.38 350.65,2302.69 355.66,2302.69
             390.28,2302.66 424.91,2302.87 459.54,2302.54
             467.86,2302.46 474.74,2304.31 479.66,2311.08
             489.14,2324.13 501.58,2327.82 517.58,2327.04
             544.48,2325.72 571.50,2326.67 598.47,2326.69
             603.16,2326.69 607.30,2326.25 611.44,2322.99
             617.70,2318.06 625.51,2319.40 630.20,2324.96
             634.36,2329.89 634.49,2337.48 630.49,2342.51
             625.89,2348.29 617.98,2350.02 611.86,2345.08
             606.85,2341.04 601.71,2340.82 596.04,2340.83
             564.41,2340.80 532.77,2340.65 501.15,2340.68
             493.24,2340.60 486.49,2339.24 481.89,2332.63
             472.07,2318.53 458.61,2314.72 442.09,2316.32
             430.21,2317.46 418.14,2316.10 406.15,2316.09
             406.15,2316.09 406.53,2316.82 406.53,2316.82 Z
           M 1527.60,1188.89
           C 1527.04,1191.92 1526.48,1194.95 1525.92,1197.98
             1523.92,1199.73 1522.06,1201.68 1519.89,1203.18
             1514.09,1207.17 1507.43,1206.63 1502.46,1202.01
             1497.90,1197.77 1496.04,1190.88 1499.77,1185.70
             1503.69,1180.27 1503.76,1174.68 1503.75,1168.70
             1503.74,1117.05 1503.61,1065.40 1503.60,1013.75
             1503.56,1006.48 1501.58,1001.30 1496.35,996.25
             1478.87,979.34 1461.82,961.98 1444.65,944.75
             1441.33,941.42 1438.11,938.84 1432.86,938.33
             1424.82,937.56 1420.40,931.42 1420.88,923.84
             1420.44,917.02 1426.99,911.34 1433.83,910.86
             1440.42,910.40 1447.40,914.99 1448.06,922.21
             1448.69,929.08 1452.63,932.92 1456.84,937.13
             1474.05,954.32 1491.01,971.77 1508.56,988.61
             1515.08,994.87 1517.83,1001.44 1517.77,1010.52
             1517.42,1061.84 1517.84,1113.16 1517.39,1164.47
             1517.30,1174.51 1519.50,1182.56 1527.29,1188.89
             1527.29,1188.89 1527.60,1188.89 1527.60,1188.89 Z
           M 1478.61,48.04
           C 1484.14,47.89 1488.24,50.37 1490.99,55.03
             1493.79,59.77 1493.92,64.91 1490.60,69.17
             1481.95,80.29 1486.80,92.82 1486.68,104.73
             1486.65,107.29 1490.24,110.12 1492.55,112.43
             1518.87,138.86 1545.29,165.19 1571.63,191.61
             1586.83,206.87 1585.05,202.67 1585.12,224.67
             1585.19,249.65 1585.14,274.63 1585.13,299.61
             1585.13,304.28 1585.48,308.45 1588.76,312.61
             1593.73,318.88 1592.43,326.69 1586.92,331.39
             1581.72,335.83 1573.68,335.71 1568.63,331.11
             1563.13,326.11 1562.13,318.90 1567.22,312.31
             1570.39,308.21 1571.01,304.09 1571.00,299.36
             1570.94,272.72 1570.82,246.07 1570.91,219.43
             1570.85,213.25 1569.01,208.79 1564.66,204.48
             1536.49,176.60 1508.70,148.34 1480.39,120.60
             1473.88,114.22 1470.66,107.55 1471.49,98.54
             1471.03,93.59 1471.46,88.55 1471.38,83.56
             1471.24,78.48 1471.10,73.91 1467.35,69.72
             1463.74,65.69 1463.83,60.44 1466.21,55.62
             1468.61,50.76 1472.72,48.19 1478.22,48.05
             1478.22,48.05 1478.61,48.04 1478.61,48.04 Z
           M 622.53,988.79
           C 583.23,988.79 543.92,988.78 504.63,988.77
             499.26,988.77 494.50,988.34 489.79,992.98
             483.58,997.97 475.83,996.31 471.16,990.49
             466.96,985.26 467.02,978.18 471.01,973.02
             475.66,967.41 483.48,966.00 489.79,970.80
             493.89,973.92 497.95,974.66 502.70,974.66
             581.96,974.61 661.24,974.62 740.50,974.63
             745.18,974.63 749.34,974.24 753.48,970.96
             759.75,966.01 767.54,967.34 772.25,972.88
             776.43,977.80 776.57,985.39 772.58,990.42
             767.99,996.21 760.06,997.95 753.95,993.03
             748.94,989.00 743.81,988.76 738.13,988.76
             699.49,988.73 660.87,988.74 622.23,988.74
             622.23,988.74 622.53,988.79 622.53,988.79 Z
           M 277.01,1332.80
           C 277.01,1339.60 271.63,1345.67 264.85,1346.49
             257.32,1345.57 250.10,1342.94 249.71,1335.43
             249.36,1328.63 246.09,1324.47 241.66,1320.26
             235.87,1314.76 230.08,1309.21 224.75,1303.28
             220.40,1298.45 215.56,1296.59 208.99,1296.64
             174.36,1296.36 139.73,1296.55 105.10,1296.35
             96.12,1296.25 89.39,1293.97 83.07,1287.41
             63.88,1267.53 44.10,1248.22 24.59,1228.64
             21.04,1225.08 17.67,1222.16 11.99,1221.68
             4.34,1221.03 -0.65,1214.02 0.05,1207.03
             -0.62,1200.33 6.71,1194.60 13.38,1194.26
             20.09,1193.92 26.73,1198.68 27.40,1205.84
             27.92,1211.40 30.50,1214.95 34.13,1218.55
             53.27,1237.55 72.46,1256.52 91.26,1275.84
             95.88,1280.58 100.70,1282.21 107.11,1282.17
             142.41,1281.96 177.71,1282.29 213.00,1281.89
             220.71,1281.80 226.31,1284.08 231.38,1289.63
             237.67,1296.50 244.57,1302.81 251.07,1309.50
             255.49,1314.05 259.80,1318.03 266.71,1319.13
             273.10,1320.15 277.00,1326.28 277.01,1332.21
             277.01,1332.21 277.01,1332.80 277.01,1332.80 Z
           M 993.06,505.07
           C 985.47,504.56 976.59,506.31 970.68,502.90
             965.13,499.70 962.56,491.14 958.98,484.77
             955.41,478.42 949.71,471.89 949.60,465.37
             949.50,459.30 955.46,453.09 958.87,447.00
             961.64,442.06 964.73,437.30 967.38,432.30
             969.47,428.36 972.23,426.46 976.88,426.59
             987.86,426.89 998.85,426.91 1009.84,426.77
             1014.07,426.72 1016.58,428.49 1018.56,432.05
             1024.06,441.95 1029.68,451.78 1035.46,461.52
             1037.42,464.83 1037.19,467.58 1035.27,470.76
             1029.43,480.46 1023.70,490.23 1018.11,500.08
             1016.25,503.36 1013.83,504.82 1010.06,504.70
             1004.40,504.51 998.74,504.65 993.07,504.65
             993.07,504.65 993.04,504.22 993.04,504.22
             993.04,504.22 993.06,505.07 993.06,505.07 Z
           M 1387.91,1663.80
           C 1387.91,1684.13 1387.96,1704.45 1387.88,1724.78
             1387.86,1730.20 1388.41,1734.86 1392.57,1739.36
             1397.86,1745.09 1396.63,1753.28 1391.20,1758.16
             1386.17,1762.68 1379.19,1763.04 1373.74,1757.26
             1367.82,1752.93 1365.94,1745.32 1370.43,1738.72
             1373.35,1734.44 1373.76,1730.23 1373.76,1725.55
             1373.76,1685.23 1373.65,1644.91 1373.65,1604.59
             1373.62,1598.48 1372.01,1594.00 1367.58,1589.64
             1342.18,1564.62 1317.04,1539.33 1291.88,1514.07
             1288.52,1510.70 1285.15,1508.39 1280.03,1507.75
             1272.11,1506.75 1267.24,1500.18 1267.74,1493.21
             1267.24,1486.37 1273.92,1480.72 1280.75,1480.29
             1288.55,1479.80 1294.39,1484.43 1295.32,1493.31
             1295.84,1498.30 1298.67,1501.05 1301.69,1504.07
             1327.59,1530.00 1353.37,1556.07 1379.54,1581.73
             1385.52,1587.59 1388.01,1593.73 1387.82,1602.02
             1387.38,1622.00 1387.68,1642.00 1387.68,1662.00
             1387.68,1662.00 1387.91,1663.80 1387.91,1663.80 Z
           M 279.85,672.39
           C 279.85,661.07 279.77,649.75 279.82,638.43
             279.76,632.08 279.69,626.29 275.25,620.72
             270.83,615.17 272.98,607.20 278.46,602.92
             283.61,598.90 291.05,599.08 295.96,603.35
             301.33,608.01 303.01,615.55 298.36,621.23
             294.07,626.47 293.84,631.91 293.86,637.93
             293.93,660.57 294.11,683.22 293.75,705.85
             293.64,712.44 295.84,717.05 300.42,721.59
             335.64,756.53 370.67,791.66 405.70,826.78
             409.06,830.15 412.43,832.47 417.54,833.16
             425.73,834.26 430.08,840.23 429.66,847.67
             429.26,854.75 423.93,860.11 416.85,860.55
             409.37,860.09 403.26,856.70 402.28,848.53
             401.61,842.95 398.82,839.51 395.25,835.95
             359.67,800.43 324.25,764.76 288.48,729.43
             282.32,723.35 279.20,717.10 279.63,708.35
             279.04,696.39 279.48,684.38 279.48,672.40
             279.48,672.40 279.85,672.39 279.85,672.39 Z
           M 1107.78,666.72
           C 1107.78,655.73 1107.73,644.73 1107.76,633.73
             1107.73,628.70 1107.36,624.24 1103.88,619.82
             1099.02,613.64 1100.54,605.69 1106.19,601.08
             1111.22,596.98 1118.75,596.99 1123.72,601.11
             1129.47,605.87 1130.87,613.42 1126.03,619.82
             1122.73,624.18 1121.82,628.52 1121.85,633.66
             1121.97,654.99 1122.05,676.31 1121.81,697.63
             1121.74,703.40 1123.54,707.66 1127.63,711.73
             1164.95,748.84 1202.15,786.07 1239.27,823.39
             1242.77,826.91 1246.55,828.39 1251.37,829.25
             1259.46,830.68 1264.15,838.15 1262.61,845.43
             1261.06,852.73 1254.54,857.41 1247.13,856.52
             1241.27,855.82 1235.97,851.87 1235.64,845.81
             1235.29,839.33 1231.76,835.56 1227.74,831.55
             1190.73,794.59 1153.88,757.48 1116.68,720.72
             1110.24,714.36 1107.10,707.76 1107.60,698.69
             1107.01,688.06 1107.46,677.38 1107.46,666.72
             1107.46,666.72 1107.78,666.72 1107.78,666.72 Z
           M 815.79,231.65
           C 815.79,217.66 815.69,203.67 815.74,189.68
             815.69,184.84 814.89,181.02 811.07,177.31
             805.46,171.87 805.81,163.71 810.68,158.43
             815.08,153.66 822.53,152.59 828.04,155.95
             834.28,159.76 836.78,167.28 833.03,174.14
             830.49,178.80 829.81,183.38 829.82,188.44
             829.89,215.09 830.00,241.73 829.74,268.37
             829.68,274.80 831.37,279.63 836.06,284.27
             868.50,316.35 900.70,348.67 932.90,380.98
             936.07,384.16 939.15,386.12 944.06,386.22
             952.37,386.39 957.33,391.75 957.63,399.23
             957.90,406.27 953.21,412.19 946.27,413.56
             939.36,414.93 932.36,410.85 930.51,403.05
             929.26,397.79 926.43,394.22 922.87,390.66
             890.10,357.97 857.52,325.08 824.55,292.61
             818.08,286.24 815.15,279.61 815.55,270.58
             814.98,257.62 815.40,244.61 815.41,231.62
             815.41,231.62 815.79,231.65 815.79,231.65 Z
           M 1361.68,1291.49
           C 1361.62,1294.53 1359.13,1298.67 1354.27,1301.12
             1349.46,1303.55 1343.93,1303.87 1340.21,1300.06
             1335.10,1294.82 1329.23,1294.77 1322.84,1294.77
             1252.89,1294.72 1182.94,1294.73 1112.99,1294.75
             1107.32,1294.75 1102.11,1294.49 1096.91,1298.53
             1090.42,1302.92 1082.54,1300.61 1078.44,1294.56
             1074.70,1289.05 1075.34,1281.95 1080.02,1277.15
             1085.30,1271.72 1092.71,1270.93 1098.83,1276.46
             1102.77,1280.02 1106.76,1280.64 1111.50,1280.64
             1183.45,1280.60 1255.40,1280.59 1327.35,1280.66
             1332.47,1280.66 1336.79,1279.50 1341.38,1276.85
             1350.85,1271.38 1361.85,1278.32 1361.68,1291.46
             1361.68,1291.46 1361.68,1291.49 1361.68,1291.49 Z
           M 877.00,2335.61
           C 876.80,2346.20 865.80,2353.31 857.02,2348.08
             851.12,2344.57 845.39,2343.98 839.05,2344.03
             826.08,2343.92 813.08,2343.56 800.13,2343.90
             792.16,2343.53 786.34,2345.81 780.86,2351.69
             770.21,2363.13 758.59,2373.67 747.90,2385.08
             742.40,2390.95 736.37,2393.05 728.49,2392.96
             702.20,2392.63 675.92,2392.88 649.63,2392.81
             644.22,2392.79 639.50,2392.22 634.82,2397.05
             628.58,2401.92 620.82,2400.32 616.17,2394.57
             612.14,2389.58 612.21,2382.00 616.01,2377.04
             620.66,2371.45 628.55,2370.03 634.75,2374.91
             638.87,2378.15 642.97,2378.70 647.67,2378.69
             673.63,2378.65 699.58,2378.49 725.53,2378.80
             731.77,2378.88 736.12,2376.81 740.34,2372.43
             751.88,2360.44 764.00,2349.02 775.48,2336.98
             780.50,2331.70 785.98,2329.62 793.16,2329.79
             808.13,2330.16 823.11,2329.83 838.08,2329.93
             844.12,2329.97 849.63,2329.88 854.52,2324.91
             858.52,2320.84 864.29,2321.01 869.42,2323.82
             874.18,2326.44 876.37,2330.78 876.68,2335.61
             876.68,2335.61 877.00,2335.61 877.00,2335.61 Z
           M 711.05,2612.69
           C 736.36,2612.69 761.67,2612.66 786.98,2612.71
             791.71,2612.71 795.80,2612.09 799.92,2608.91
             806.19,2604.06 814.01,2605.46 818.66,2611.08
             822.79,2616.07 822.83,2623.61 818.75,2628.61
             814.07,2634.35 806.34,2635.90 800.08,2630.99
             795.39,2627.32 790.64,2626.79 785.25,2626.80
             736.63,2626.75 688.00,2626.61 639.39,2626.66
             631.69,2626.61 626.16,2628.93 621.08,2634.50
             614.13,2642.12 606.62,2649.23 599.25,2656.46
             595.19,2660.45 591.98,2664.29 591.26,2670.68
             590.22,2679.77 580.26,2684.26 572.20,2680.45
             566.87,2677.93 563.51,2672.28 564.05,2666.74
             563.50,2661.04 568.73,2654.90 574.35,2654.79
             582.20,2654.62 586.25,2649.69 590.92,2645.07
             599.43,2636.63 608.06,2628.29 616.30,2619.59
             621.01,2614.63 626.31,2612.55 633.13,2612.61
             659.11,2612.83 685.07,2612.70 711.05,2612.69
             711.05,2612.69 711.05,2612.69 711.05,2612.69 Z
           M 769.11,2536.82
           C 752.80,2536.82 736.49,2536.64 720.18,2536.73
             714.42,2536.63 710.01,2538.29 706.09,2542.55
             700.70,2548.43 694.90,2553.95 689.19,2559.54
             685.82,2562.83 683.31,2566.10 682.70,2571.30
             681.77,2579.28 675.34,2584.22 668.41,2583.87
             661.57,2583.53 655.81,2577.94 655.25,2571.12
             654.61,2563.27 659.24,2557.25 667.95,2556.29
             672.44,2555.79 675.26,2553.72 678.10,2550.85
             684.88,2543.99 691.99,2537.43 698.48,2530.30
             703.60,2524.68 709.41,2522.48 716.99,2522.56
             746.61,2522.85 776.25,2522.13 805.86,2522.95
             817.22,2523.26 825.38,2520.11 832.69,2511.55
             840.24,2502.72 848.97,2494.90 857.27,2486.72
             860.63,2483.40 863.15,2480.19 863.43,2474.87
             863.00,2466.72 869.65,2462.02 877.19,2462.11
             884.10,2462.20 889.94,2467.40 890.85,2474.27
             891.73,2480.88 887.61,2487.89 880.35,2489.08
             873.76,2490.16 869.73,2493.92 865.52,2498.16
             854.96,2508.79 844.18,2519.19 833.83,2530.01
             829.09,2534.98 823.85,2537.03 817.03,2536.89
             801.06,2536.58 785.08,2536.79 769.10,2536.80
             769.10,2536.80 769.11,2536.82 769.11,2536.82 Z
           M 1326.97,1157.26
           C 1326.75,1163.93 1322.87,1169.03 1317.27,1171.00
             1311.56,1173.02 1306.73,1170.70 1302.76,1167.16
             1298.65,1162.87 1297.07,1156.66 1300.50,1152.51
             1306.58,1145.15 1305.83,1137.13 1305.72,1128.95
             1305.60,1120.01 1307.34,1110.17 1304.15,1102.41
             1301.10,1094.99 1292.82,1089.68 1286.75,1083.54
             1277.16,1073.84 1267.66,1064.04 1257.76,1054.65
             1252.76,1049.91 1250.85,1044.65 1250.92,1037.84
             1250.67,1012.55 1250.82,987.26 1250.83,961.97
             1250.83,956.34 1250.72,951.10 1247.13,945.89
             1242.66,939.41 1244.90,931.60 1250.93,927.42
             1256.48,923.57 1263.42,924.12 1268.33,928.80
             1273.80,934.01 1274.65,941.49 1269.23,947.59
             1265.76,951.50 1264.90,955.40 1264.92,960.19
             1265.02,984.81 1265.11,1009.44 1264.86,1034.06
             1264.80,1039.86 1266.64,1044.05 1270.76,1048.06
             1284.82,1061.76 1298.43,1075.92 1312.55,1089.57
             1317.74,1094.59 1320.20,1100.02 1319.81,1107.24
             1319.40,1114.87 1319.72,1122.54 1319.72,1130.20
             1319.72,1137.77 1318.70,1145.49 1325.00,1151.68
             1326.44,1153.09 1326.42,1155.98 1326.80,1157.26
             1326.80,1157.26 1326.97,1157.26 1326.97,1157.26 Z
           M 629.75,1376.51
           C 629.84,1382.00 627.55,1386.26 622.75,1388.87
             617.63,1391.66 611.55,1392.09 607.91,1387.74
             602.72,1381.54 596.50,1382.01 589.88,1382.02
             542.55,1382.00 495.22,1381.82 447.90,1381.83
             437.86,1381.75 429.94,1379.69 423.24,1371.81
             417.00,1364.47 409.66,1358.07 402.87,1351.18
             400.00,1348.26 397.11,1346.36 392.59,1346.06
             384.05,1345.50 379.42,1340.33 379.24,1332.81
             379.07,1325.46 384.58,1319.23 391.87,1318.53
             398.81,1317.86 405.27,1322.46 406.66,1330.52
             407.48,1335.25 409.73,1338.38 412.85,1341.45
             419.97,1348.47 427.10,1355.49 434.03,1362.69
             437.25,1366.03 440.80,1367.57 445.51,1367.56
             496.51,1367.46 547.50,1367.58 598.49,1367.33
             602.54,1367.31 606.66,1365.17 610.62,1363.69
             619.98,1360.18 629.54,1366.33 629.75,1376.14
             629.75,1376.14 629.75,1376.51 629.75,1376.51 Z
           M 879.14,473.11
           C 879.14,480.44 879.23,487.78 879.11,495.11
             879.01,501.15 879.44,506.59 883.61,511.87
             888.03,517.47 885.97,525.41 880.52,529.70
             875.42,533.72 867.91,533.58 862.98,529.36
             857.61,524.76 855.88,517.14 860.52,511.47
             864.80,506.23 865.11,500.80 865.07,494.77
             864.97,480.44 864.88,466.11 865.03,451.78
             864.95,446.45 863.73,442.33 859.81,438.45
             825.99,404.88 792.33,371.15 758.67,337.41
             755.73,334.46 752.67,332.86 748.32,332.36
             740.47,331.47 735.54,325.19 735.88,318.03
             735.57,311.46 742.09,305.44 748.79,304.85
             755.80,304.23 762.71,309.23 763.33,316.96
             763.80,322.70 766.90,325.97 770.42,329.50
             803.65,362.72 836.72,396.10 870.22,429.05
             876.73,435.45 879.80,442.11 879.15,451.12
             878.62,458.41 879.04,465.78 879.04,473.11
             879.04,473.11 879.14,473.11 879.14,473.11 Z
           M 1539.00,275.15
           C 1538.26,276.80 1537.46,280.21 1535.46,282.64
             1532.70,286.01 1531.87,289.51 1531.87,293.66
             1531.93,356.28 1531.97,418.90 1531.80,481.52
             1531.79,486.73 1534.15,490.09 1537.11,493.84
             1540.86,498.60 1540.65,505.07 1537.32,509.70
             1534.16,514.08 1529.80,516.24 1524.39,515.71
             1518.70,515.15 1513.31,510.83 1512.64,505.07
             1512.22,501.42 1513.81,497.50 1514.70,493.74
             1513.81,489.99 1517.62,486.30 1517.63,482.57
             1517.45,419.62 1517.55,356.66 1517.40,293.71
             1517.39,288.67 1515.61,284.98 1512.82,281.04
             1509.33,276.10 1510.08,269.68 1511.99,265.20
             1515.63,260.64 1521.74,258.82 1527.30,260.66
             1532.56,262.39 1536.70,267.99 1536.89,275.14
             1536.89,275.14 1539.00,275.15 1539.00,275.15 Z
           M 1187.39,236.82
           C 1198.46,236.85 1205.47,248.34 1199.75,257.55
             1196.48,262.82 1195.84,267.86 1195.88,273.54
             1195.96,284.19 1196.33,294.86 1195.76,305.48
             1195.34,313.42 1197.80,319.20 1203.56,324.78
             1222.93,343.53 1241.64,362.95 1260.95,381.75
             1266.91,387.56 1269.59,393.78 1269.26,402.08
             1268.78,414.04 1269.22,426.04 1269.10,438.02
             1269.05,442.49 1269.96,446.08 1273.16,449.72
             1278.68,456.00 1278.08,463.18 1272.79,468.55
             1267.93,473.47 1260.06,474.03 1254.56,469.83
             1248.81,465.44 1247.12,457.75 1251.64,451.16
             1254.55,446.92 1255.06,442.73 1255.04,438.05
             1254.99,427.40 1254.64,416.73 1254.92,406.11
             1254.57,398.87 1253.04,393.63 1247.80,388.53
             1228.23,369.51 1209.26,349.88 1189.70,330.84
             1183.73,325.03 1181.11,318.78 1181.43,310.50
             1180.95,298.20 1181.36,285.88 1181.29,273.56
             1181.26,268.19 1181.15,263.37 1176.61,259.07
             1172.44,255.12 1172.37,249.47 1175.24,244.26
             1177.87,239.49 1182.12,237.24 1186.87,236.82
             1186.87,236.82 1187.39,236.82 1187.39,236.82 Z
           M 1244.96,1121.39
           C 1245.23,1128.00 1240.01,1134.35 1233.26,1135.62
             1227.10,1136.78 1219.38,1133.21 1218.29,1126.85
             1216.97,1119.11 1211.95,1114.72 1207.08,1109.84
             1183.80,1086.51 1160.40,1063.29 1137.24,1039.83
             1133.20,1035.74 1129.07,1033.83 1123.25,1033.90
             1100.61,1033.64 1077.97,1033.68 1055.33,1033.87
             1049.77,1033.82 1045.22,1032.98 1040.92,1038.86
             1036.72,1042.86 1031.15,1042.77 1026.05,1037.97
             1020.99,1034.97 1018.72,1030.41 1019.28,1024.53
             1018.35,1014.84 1030.80,1008.68 1039.25,1013.99
             1045.14,1017.69 1050.89,1018.09 1057.20,1018.07
             1080.51,1018.02 1103.81,1018.22 1127.12,1017.95
             1133.97,1017.87 1139.07,1020.07 1143.87,1024.93
             1168.67,1050.04 1193.75,1074.89 1218.63,1099.91
             1222.48,1103.79 1226.10,1106.63 1232.28,1106.53
             1239.36,1106.42 1244.66,1112.79 1244.94,1119.55
             1244.94,1119.55 1244.96,1121.39 1244.96,1121.39 Z
           M 1135.60,2418.05
           C 1128.62,2418.05 1121.62,2418.03 1114.63,2418.05
             1108.34,2418.02 1102.49,2417.95 1096.88,2422.53
             1091.37,2427.03 1083.37,2424.87 1079.08,2419.43
             1074.89,2414.12 1075.00,2407.15 1078.80,2401.97
             1083.37,2396.54 1090.99,2394.75 1096.66,2399.37
             1101.89,2403.63 1107.29,2404.01 1113.33,2403.96
             1127.65,2403.85 1141.96,2403.77 1156.27,2404.00
             1161.32,2404.08 1165.08,2402.47 1168.63,2398.89
             1198.20,2369.13 1227.89,2339.48 1257.60,2309.84
             1260.51,2306.94 1262.25,2303.90 1262.95,2299.59
             1264.24,2291.64 1270.44,2287.41 1277.94,2288.17
             1284.69,2288.85 1290.23,2294.82 1290.41,2301.59
             1290.58,2308.21 1285.68,2315.05 1278.52,2315.39
             1271.63,2315.06 1267.69,2319.38 1263.44,2323.64
             1235.46,2351.71 1207.24,2379.53 1179.53,2407.86
             1172.49,2415.06 1165.27,2419.19 1155.02,2418.15
             1148.43,2417.49 1141.71,2418.03 1135.05,2418.03
             1135.05,2418.03 1135.60,2418.05 1135.60,2418.05 Z
           M 1389.58,2128.81
           C 1389.43,2130.56 1389.28,2132.31 1389.13,2134.05
             1387.04,2136.19 1385.13,2138.54 1382.83,2140.42
             1377.08,2145.14 1369.92,2144.94 1364.62,2140.15
             1359.63,2135.65 1357.73,2128.22 1362.19,2123.07
             1367.24,2117.24 1366.99,2111.02 1366.99,2104.41
             1366.99,2050.15 1366.99,1995.88 1366.97,1941.62
             1366.97,1936.26 1366.59,1931.48 1362.83,1926.77
             1357.80,1920.49 1359.34,1912.87 1365.13,1908.12
             1370.35,1903.85 1377.37,1903.82 1382.59,1908.06
             1388.26,1912.68 1389.84,1920.58 1385.02,1926.80
             1381.59,1931.22 1381.07,1935.63 1381.08,1940.69
             1381.13,1993.96 1381.34,2047.22 1380.91,2100.49
             1380.82,2111.21 1382.26,2120.71 1389.55,2128.81
             1389.55,2128.81 1389.58,2128.81 1389.58,2128.81 Z
           M 337.12,1227.19
           C 340.45,1228.71 343.89,1229.25 345.62,1231.26
             349.71,1236.04 354.81,1235.91 360.18,1235.91
             388.80,1235.88 417.43,1236.08 446.06,1235.78
             453.62,1235.70 459.40,1237.78 464.60,1243.38
             473.20,1252.65 482.58,1261.19 491.27,1270.37
             495.45,1274.79 499.80,1277.24 506.08,1276.76
             513.26,1276.22 520.26,1277.18 526.74,1271.85
             531.81,1267.67 539.52,1270.00 543.70,1275.08
             548.02,1280.33 548.06,1287.25 543.80,1292.53
             539.64,1297.69 531.93,1300.13 526.92,1295.96
             520.20,1290.37 512.89,1290.27 505.36,1290.93
             495.89,1290.10 488.88,1288.57 482.57,1281.51
             474.37,1272.34 465.15,1264.10 456.62,1255.22
             453.15,1251.60 449.47,1249.92 444.36,1249.96
             414.73,1249.77 385.10,1249.74 355.49,1249.92
             350.38,1249.87 346.79,1252.38 342.66,1254.41
             336.30,1257.54 328.99,1253.69 325.26,1249.19
             321.81,1243.69 322.53,1236.02 327.59,1231.93
             330.27,1229.76 333.88,1228.76 337.12,1227.21
             337.12,1227.21 337.12,1227.19 337.12,1227.19 Z
           M 908.88,2374.82
           C 891.58,2374.82 874.28,2374.75 856.98,2374.79
             851.89,2374.76 847.50,2374.11 843.12,2378.84
             836.69,2383.78 829.23,2382.49 824.41,2376.84
             819.98,2371.65 820.12,2363.62 824.09,2358.56
             828.95,2353.23 836.43,2352.33 842.95,2357.25
             846.45,2359.89 849.86,2360.71 853.96,2360.71
             888.56,2360.66 923.16,2360.63 957.76,2360.74
             962.38,2360.76 965.97,2359.57 969.28,2356.16
             979.94,2345.18 990.99,2334.58 1001.57,2323.53
             1003.91,2321.09 1005.55,2317.57 1006.48,2314.26
             1008.86,2305.76 1014.27,2301.28 1022.09,2302.19
             1028.83,2302.97 1034.28,2309.03 1034.34,2315.80
             1034.40,2322.81 1029.20,2329.11 1021.27,2329.64
             1016.02,2329.28 1012.70,2332.27 1009.36,2335.67
             998.84,2346.32 988.01,2356.68 977.72,2367.53
             972.76,2372.76 967.40,2375.09 960.15,2374.93
             942.86,2374.55 925.55,2374.81 908.25,2374.81
             908.25,2374.81 908.88,2374.82 908.88,2374.82 Z
           M 1160.01,2790.63
           C 1153.04,2790.60 1147.18,2785.66 1146.10,2778.76
             1145.13,2772.54 1148.75,2765.23 1155.38,2764.13
             1164.18,2762.68 1169.15,2756.80 1174.72,2751.25
             1196.38,2729.62 1217.91,2707.86 1239.75,2686.41
             1244.15,2682.09 1246.05,2677.67 1245.91,2671.51
             1245.55,2655.55 1245.75,2639.57 1245.81,2623.60
             1245.79,2619.21 1245.15,2615.39 1242.54,2611.45
             1238.09,2604.72 1239.76,2597.31 1245.60,2592.85
             1251.04,2588.69 1258.99,2589.28 1263.82,2594.21
             1268.90,2599.39 1269.50,2607.20 1264.04,2613.08
             1260.42,2616.98 1259.84,2620.99 1259.86,2625.73
             1259.94,2642.37 1259.63,2659.01 1260.01,2675.64
             1260.17,2682.89 1257.75,2688.20 1252.63,2693.24
             1228.46,2717.06 1204.57,2741.17 1180.55,2765.16
             1176.78,2768.92 1173.50,2772.37 1173.37,2778.62
             1173.22,2786.05 1167.15,2790.62 1160.01,2790.65
             1160.01,2790.65 1160.01,2790.63 1160.01,2790.63 Z
           M 859.72,1297.85
           C 852.53,1297.76 847.17,1294.19 845.00,1288.74
             842.76,1283.12 844.25,1278.27 848.23,1274.09
             852.23,1269.88 858.98,1268.01 863.74,1271.52
             870.36,1276.40 877.42,1275.86 884.66,1275.87
             918.60,1275.90 952.55,1276.06 986.48,1275.76
             994.35,1275.69 1000.51,1277.62 1005.87,1283.64
             1012.51,1291.08 1019.91,1297.82 1026.94,1304.91
             1031.37,1309.38 1035.37,1313.30 1042.87,1313.35
             1051.15,1313.40 1056.41,1322.19 1054.56,1329.82
             1052.71,1337.45 1045.46,1342.08 1037.83,1340.31
             1032.10,1338.98 1028.96,1335.13 1027.22,1329.55
             1026.19,1326.24 1024.59,1322.74 1022.26,1320.26
             1014.05,1311.54 1005.31,1303.33 997.00,1294.70
             993.74,1291.32 990.20,1289.97 985.54,1289.99
             949.61,1289.87 913.67,1289.89 877.73,1289.97
             873.52,1289.97 870.20,1289.00 867.04,1294.05
             864.84,1296.21 861.32,1297.04 859.71,1297.82
             859.71,1297.82 859.72,1297.85 859.72,1297.85 Z
           M 406.46,1284.64
           C 403.49,1286.48 401.12,1288.35 398.44,1289.53
             392.33,1292.23 385.29,1288.98 381.59,1284.73
             378.11,1279.69 378.43,1272.65 380.82,1267.99
             385.14,1262.87 392.14,1261.29 397.96,1264.66
             407.91,1270.42 417.87,1275.93 425.75,1284.92
             435.18,1295.67 445.96,1305.23 455.93,1315.52
             459.43,1319.13 463.11,1320.78 468.22,1320.74
             496.22,1320.55 524.22,1320.51 552.20,1320.78
             557.40,1320.83 560.79,1318.57 564.57,1315.63
             569.66,1311.68 575.47,1311.95 580.36,1315.49
             585.14,1318.95 587.00,1323.72 585.99,1329.50
             584.40,1338.67 574.23,1343.91 565.97,1338.79
             560.07,1335.14 554.25,1334.78 547.92,1334.79
             520.60,1334.75 493.27,1334.64 465.94,1334.67
             458.74,1334.60 453.25,1332.66 448.23,1327.42
             436.70,1315.39 424.75,1303.77 412.94,1292.01
             410.37,1289.45 407.68,1287.01 404.91,1284.39
             404.91,1284.39 406.46,1284.64 406.46,1284.64 Z
           M 534.74,2632.84
           C 529.41,2632.84 524.10,2632.77 518.77,2632.82
             513.08,2632.72 507.91,2632.46 502.76,2636.70
             496.69,2640.85 489.18,2638.78 484.97,2633.28
             480.65,2627.64 481.15,2620.14 486.16,2615.10
             491.25,2609.99 498.66,2608.87 504.15,2614.01
             508.63,2618.20 513.23,2618.76 518.64,2618.70
             529.61,2618.58 540.60,2618.50 551.58,2618.72
             556.25,2618.81 559.74,2617.32 563.04,2614.00
             589.54,2587.32 616.15,2560.74 642.81,2534.21
             645.82,2531.21 647.03,2528.04 647.40,2523.74
             646.62,2514.74 656.20,2509.23 664.22,2511.33
             670.24,2512.91 674.71,2518.27 675.00,2524.25
             675.30,2530.57 671.00,2537.40 664.40,2538.03
             657.88,2537.41 654.31,2542.48 650.35,2546.44
             624.45,2572.32 598.41,2598.06 572.79,2624.20
             566.72,2630.40 560.44,2633.75 551.70,2632.92
             546.09,2632.39 540.39,2632.82 534.74,2632.82
             534.74,2632.82 534.74,2632.84 534.74,2632.84 Z
           M 1074.98,2473.48
           C 1074.41,2478.56 1072.08,2482.85 1067.18,2485.23
             1062.34,2487.58 1056.81,2487.86 1053.11,2484.04
             1048.00,2478.74 1042.08,2478.80 1035.73,2478.81
             1008.42,2478.75 981.12,2478.62 953.81,2478.72
             946.99,2478.65 941.83,2480.48 937.08,2485.51
             927.02,2496.16 916.46,2506.34 906.07,2516.67
             902.74,2519.98 900.17,2523.31 899.18,2528.35
             897.73,2535.68 891.38,2539.38 884.24,2538.57
             877.45,2537.80 872.01,2531.80 871.94,2524.99
             871.87,2518.35 877.02,2511.10 883.97,2511.38
             892.07,2511.70 896.00,2506.89 900.64,2502.27
             910.80,2492.17 921.08,2482.20 930.96,2471.84
             935.95,2466.61 941.53,2464.53 948.70,2464.59
             978.34,2464.82 1007.97,2464.69 1037.61,2464.67
             1043.55,2464.67 1049.01,2464.36 1054.65,2460.84
             1063.73,2455.19 1075.32,2462.80 1074.96,2473.48
             1074.96,2473.48 1074.98,2473.48 1074.98,2473.48 Z
           M 1315.78,567.32
           C 1315.78,560.00 1315.75,552.68 1315.78,545.36
             1315.75,538.49 1315.12,531.92 1310.50,526.04
             1305.77,521.35 1307.47,513.61 1312.27,508.94
             1317.07,504.25 1324.16,503.59 1329.66,507.31
             1335.03,510.94 1338.25,518.69 1334.56,523.93
             1328.99,531.84 1329.97,540.23 1329.92,548.73
             1329.84,563.04 1330.06,577.35 1329.83,591.65
             1329.75,596.69 1331.31,600.46 1334.90,604.01
             1355.72,624.60 1376.45,645.29 1397.00,666.15
             1400.33,669.53 1404.23,670.29 1408.38,671.47
             1416.36,673.74 1420.47,681.10 1418.37,688.39
             1416.29,695.61 1409.54,699.77 1402.18,698.36
             1396.46,697.27 1391.59,693.01 1391.55,686.82
             1391.51,680.66 1388.41,677.07 1384.58,673.26
             1364.29,653.08 1344.22,632.67 1323.78,612.65
             1318.14,607.12 1315.23,601.27 1315.70,593.27
             1315.20,584.65 1315.59,575.97 1315.59,567.32
             1315.59,567.32 1315.78,567.32 1315.78,567.32 Z
           M 1477.26,1318.60
           C 1471.78,1318.51 1467.55,1316.40 1464.90,1311.63
             1462.28,1306.90 1461.82,1301.43 1464.38,1297.54
             1468.84,1292.73 1468.72,1287.44 1468.72,1281.78
             1468.70,1236.17 1468.70,1190.56 1468.72,1144.95
             1468.72,1139.30 1468.60,1134.16 1464.44,1129.16
             1459.86,1123.67 1461.71,1115.68 1466.97,1111.24
             1471.91,1107.08 1479.49,1106.96 1484.50,1110.96
             1489.98,1115.34 1492.19,1123.32 1487.61,1128.71
             1482.62,1134.57 1482.86,1140.79 1482.86,1147.39
             1482.85,1191.33 1482.85,1235.28 1482.86,1279.22
             1482.86,1285.81 1483.01,1291.82 1487.53,1297.92
             1493.93,1306.56 1486.87,1318.35 1476.22,1318.58
             1476.22,1318.58 1477.26,1318.60 1477.26,1318.60 Z
           M 1505.77,935.84
           C 1495.15,935.60 1487.78,925.59 1492.53,916.26
             1495.48,910.46 1495.73,904.88 1495.73,898.94
             1495.71,853.64 1495.72,808.33 1495.72,763.03
             1495.72,757.40 1495.72,752.22 1491.49,747.21
             1486.86,741.73 1488.69,733.74 1493.94,729.28
             1499.17,724.83 1507.17,724.98 1512.22,729.61
             1517.46,734.42 1518.88,741.72 1514.12,747.57
             1510.05,752.56 1509.84,757.72 1509.85,763.39
             1509.88,807.69 1509.88,852.00 1509.85,896.30
             1509.85,902.65 1509.70,908.51 1515.52,913.38
             1519.89,917.03 1520.02,922.82 1517.26,928.13
             1514.73,932.99 1510.51,935.28 1505.75,935.84
             1505.75,935.84 1505.77,935.84 1505.77,935.84 Z
           M 1239.15,218.44
           C 1239.15,227.76 1239.32,237.09 1239.08,246.41
             1238.96,251.09 1240.43,254.61 1243.81,257.87
             1252.68,266.42 1261.33,275.19 1269.98,283.97
             1274.42,288.47 1278.74,292.37 1285.57,293.70
             1293.56,295.25 1297.35,303.20 1295.25,310.72
             1293.31,317.68 1286.08,321.96 1278.83,320.29
             1272.60,318.86 1268.34,314.52 1268.31,308.51
             1268.28,301.82 1264.50,298.25 1260.50,294.27
             1250.83,284.63 1241.35,274.80 1231.47,265.38
             1226.75,260.88 1224.82,255.90 1224.91,249.44
             1224.65,231.46 1224.83,213.48 1224.75,195.49
             1224.68,190.06 1223.37,185.81 1219.25,182.27
             1216.48,179.89 1213.98,177.19 1211.47,174.52
             1207.76,170.58 1204.02,167.86 1197.94,167.44
             1189.38,166.84 1184.22,158.71 1185.97,151.06
             1187.71,143.43 1194.96,138.67 1202.57,140.35
             1208.32,141.62 1212.51,145.28 1212.99,151.05
             1213.46,156.72 1216.73,159.98 1220.21,163.56
             1242.44,186.44 1238.33,176.37 1238.80,208.45
             1238.85,211.78 1238.80,215.12 1238.81,218.45
             1238.81,218.45 1239.15,218.44 1239.15,218.44 Z
           M 473.99,853.32
           C 472.47,852.47 470.23,851.73 468.69,850.25
             462.23,844.03 456.04,837.53 449.61,831.26
             446.91,828.63 446.27,825.85 447.32,822.26
             449.86,813.66 452.27,805.01 454.53,796.33
             453.57,792.63 457.71,790.89 461.30,790.00
             469.68,787.92 478.04,785.71 486.32,783.25
             490.35,782.05 493.24,782.95 496.09,785.95
             502.04,792.21 508.17,798.30 514.37,804.32
             517.07,806.94 517.78,809.67 516.70,813.28
             514.14,821.88 511.97,830.59 509.33,839.16
             508.71,841.17 507.17,843.88 505.47,844.41
             495.34,847.60 485.03,850.25 473.98,853.30
             473.98,853.30 473.99,853.32 473.99,853.32 Z
           M 671.59,1286.04
           C 660.59,1286.04 649.60,1286.04 638.60,1286.04
             632.32,1286.04 626.46,1285.87 620.85,1290.54
             615.39,1295.07 607.33,1292.83 603.06,1287.37
             598.91,1282.06 599.05,1275.04 602.70,1269.90
             607.29,1264.50 614.95,1262.75 620.57,1267.41
             625.81,1271.77 631.28,1271.93 637.28,1271.91
             662.27,1271.86 687.26,1272.05 712.25,1271.80
             719.07,1271.73 724.35,1273.67 729.09,1278.66
             738.27,1288.32 747.92,1297.53 757.28,1307.02
             760.62,1310.41 763.94,1312.72 769.20,1313.06
             777.12,1313.58 782.35,1319.93 782.27,1326.93
             782.20,1333.75 776.76,1339.75 769.96,1340.51
             762.11,1339.63 756.78,1336.93 754.40,1328.35
             753.48,1325.04 751.78,1321.55 749.45,1319.09
             740.28,1309.43 730.60,1300.24 721.34,1290.66
             718.07,1287.28 714.52,1285.88 709.86,1285.95
             696.87,1285.75 683.87,1285.88 670.88,1285.89
             670.88,1285.89 671.59,1286.04 671.59,1286.04 Z
           M 182.06,1306.83
           C 188.44,1306.86 194.94,1311.44 195.33,1318.10
             195.71,1324.64 199.33,1328.33 203.36,1332.31
             210.71,1339.57 218.12,1346.78 225.24,1354.27
             228.92,1358.15 232.89,1360.01 238.39,1359.97
             264.38,1359.75 290.38,1359.75 316.38,1359.98
             321.52,1360.03 324.98,1357.92 328.78,1354.88
             334.51,1350.29 342.10,1351.23 346.93,1356.21
             351.96,1361.40 352.36,1368.78 347.91,1374.41
             343.81,1379.61 336.55,1381.86 330.99,1378.05
             325.23,1374.11 319.33,1373.98 312.99,1374.00
             287.66,1373.94 262.33,1373.77 237.00,1373.83
             228.64,1373.70 222.39,1371.41 216.77,1365.28
             209.13,1356.93 200.79,1349.22 192.84,1341.14
             189.06,1337.30 185.38,1334.33 179.34,1333.82
             171.86,1333.18 167.08,1325.63 168.16,1318.63
             169.20,1311.88 175.41,1306.47 182.06,1306.50
             182.06,1306.50 182.06,1306.83 182.06,1306.83 Z
           M 851.17,2582.83
           C 838.17,2582.83 825.19,2582.76 812.19,2582.81
             807.13,2582.77 802.67,2582.31 798.26,2586.73
             791.76,2591.78 784.37,2590.59 779.49,2584.98
             774.84,2579.64 774.87,2572.08 779.40,2566.75
             784.23,2561.28 791.74,2560.18 798.24,2565.12
             802.07,2568.03 805.84,2568.71 810.25,2568.70
             835.57,2568.64 860.90,2568.52 886.22,2568.78
             892.08,2568.84 896.21,2566.85 900.16,2562.71
             909.12,2553.30 918.43,2544.22 927.69,2535.10
             931.07,2531.77 933.38,2528.40 934.08,2523.27
             935.28,2514.49 942.88,2509.51 950.52,2511.22
             957.07,2512.69 961.54,2518.20 961.56,2524.83
             961.57,2531.62 957.47,2537.76 950.60,2538.16
             944.03,2537.78 940.38,2542.20 936.40,2546.19
             926.28,2556.34 916.01,2566.33 906.05,2576.64
             901.80,2581.04 897.10,2583.02 890.99,2582.91
             877.66,2582.66 864.33,2582.83 851.00,2582.84
             851.00,2582.84 851.17,2582.83 851.17,2582.83 Z
           M 331.91,1336.64
           C 308.84,1336.01 316.67,1339.78 303.57,1320.27
             296.03,1309.05 296.06,1300.31 303.43,1289.15
             316.92,1269.46 308.71,1272.85 332.76,1272.85
             354.07,1272.85 348.52,1269.73 358.75,1287.74
             371.02,1309.34 370.96,1300.89 358.71,1321.94
             348.16,1340.08 354.64,1336.20 331.64,1336.64
             331.64,1336.64 331.91,1336.64 331.91,1336.64 Z
           M 1291.87,2364.68
           C 1298.86,2364.68 1305.85,2364.65 1312.84,2364.68
             1318.50,2364.71 1323.65,2364.54 1328.64,2360.41
             1334.16,2355.85 1342.10,2357.70 1346.54,2362.98
             1350.70,2367.92 1350.81,2375.49 1346.80,2380.51
             1342.44,2385.97 1334.44,2388.18 1329.04,2383.60
             1323.18,2378.62 1316.96,2378.85 1310.36,2378.85
             1297.71,2378.84 1285.06,2378.67 1272.42,2378.77
             1266.73,2378.65 1262.34,2380.20 1258.24,2384.37
             1240.52,2402.43 1222.55,2420.23 1204.63,2438.09
             1201.74,2440.97 1199.81,2443.82 1199.53,2448.35
             1199.01,2456.88 1192.76,2462.26 1185.32,2461.90
             1178.63,2461.58 1172.66,2455.89 1171.96,2449.18
             1171.24,2442.22 1176.01,2435.47 1183.82,2434.42
             1188.68,2433.77 1191.63,2431.29 1194.70,2428.23
             1213.28,2409.62 1232.03,2391.17 1250.40,2372.36
             1255.68,2366.95 1261.30,2364.18 1268.91,2364.60
             1276.54,2365.03 1284.21,2364.69 1291.86,2364.69
             1291.86,2364.69 1291.87,2364.68 1291.87,2364.68 Z
           M 1481.02,1508.93
           C 1480.29,1513.77 1479.55,1518.62 1478.82,1523.46
             1476.46,1524.60 1474.11,1525.75 1471.75,1526.89
             1462.81,1531.18 1453.26,1526.51 1451.65,1517.67
             1450.72,1512.17 1447.97,1508.70 1444.42,1505.15
             1415.19,1475.95 1385.97,1446.73 1356.79,1417.48
             1352.99,1413.67 1349.36,1410.60 1343.30,1410.15
             1336.22,1409.61 1331.48,1402.65 1331.96,1395.96
             1331.49,1389.30 1338.32,1383.38 1344.98,1382.85
             1351.64,1382.33 1358.68,1387.05 1359.25,1394.11
             1359.74,1400.14 1362.74,1403.80 1366.56,1407.61
             1395.58,1436.55 1424.57,1465.53 1453.48,1494.58
             1457.08,1498.20 1460.53,1500.92 1466.21,1501.23
             1469.67,1501.42 1472.92,1504.89 1476.32,1506.79
             1477.82,1507.63 1479.45,1508.22 1481.02,1508.93
             1481.02,1508.93 1481.02,1508.93 1481.02,1508.93 Z
           M 1502.99,61.10
           C 1502.99,53.44 1502.93,45.78 1502.97,38.12
             1502.90,31.78 1502.72,25.90 1498.83,20.13
             1494.82,14.19 1497.31,6.43 1502.94,2.47
             1508.24,-1.26 1515.73,-0.70 1520.42,3.77
             1525.61,8.72 1526.97,16.31 1521.95,21.73
             1517.26,26.80 1517.03,32.17 1517.06,38.18
             1517.15,52.50 1517.39,66.83 1516.96,81.14
             1516.76,87.97 1518.66,93.04 1523.67,97.84
             1537.37,110.97 1550.64,124.56 1564.02,138.03
             1567.81,141.84 1571.43,144.74 1577.53,145.19
             1586.18,145.83 1590.99,153.56 1589.42,161.63
             1587.95,169.15 1580.55,173.98 1572.86,172.29
             1567.06,171.01 1562.97,167.18 1562.43,161.53
             1561.86,155.46 1558.21,152.02 1554.46,148.27
             1539.62,133.43 1524.90,118.48 1509.88,103.82
             1505.01,99.07 1502.51,93.97 1502.84,87.06
             1502.42,78.42 1502.74,69.75 1502.74,61.09
             1502.74,61.09 1502.99,61.10 1502.99,61.10 Z
           M 1139.76,113.94
           C 1139.76,101.62 1139.75,89.30 1139.76,76.98
             1139.76,72.31 1139.38,68.17 1136.06,64.02
             1131.11,57.83 1132.47,49.93 1137.98,45.24
             1142.90,41.06 1150.49,40.91 1155.52,44.91
             1161.33,49.53 1163.02,57.36 1158.18,63.54
             1154.52,68.22 1153.85,72.92 1153.87,78.34
             1153.96,100.98 1154.13,123.63 1153.77,146.27
             1153.66,153.18 1155.77,158.24 1160.80,162.89
             1169.10,170.58 1176.91,178.79 1184.88,186.84
             1187.73,189.72 1190.57,191.76 1195.05,192.24
             1203.42,193.14 1207.86,198.64 1207.70,206.15
             1207.54,213.45 1201.65,219.53 1194.43,219.84
             1187.49,219.54 1181.08,215.18 1180.18,207.18
             1179.59,201.95 1177.01,198.73 1173.67,195.43
             1164.68,186.53 1155.92,177.38 1146.76,168.66
             1141.83,163.96 1139.48,158.77 1139.66,151.89
             1139.33,139.24 1139.57,126.59 1139.57,113.93
             1139.57,113.93 1139.55,113.93 1139.55,113.93
             1139.55,113.93 1139.76,113.94 1139.76,113.94 Z
           M 1312.96,2500.84
           C 1312.96,2507.22 1308.60,2513.28 1301.77,2514.23
             1296.67,2513.52 1293.31,2517.36 1289.96,2520.73
             1271.18,2539.63 1252.46,2558.59 1233.37,2577.18
             1228.63,2581.80 1226.76,2586.61 1227.06,2593.03
             1227.45,2601.34 1227.17,2609.68 1227.15,2618.01
             1227.14,2624.30 1227.11,2630.05 1232.26,2635.42
             1237.26,2640.62 1235.48,2648.51 1230.11,2653.27
             1225.28,2657.55 1217.76,2657.84 1212.59,2652.61
             1207.39,2648.68 1204.80,2641.14 1208.70,2635.73
             1213.53,2629.03 1212.94,2622.00 1212.98,2614.77
             1212.92,2605.11 1212.69,2595.44 1212.92,2585.79
             1212.68,2579.27 1214.95,2574.45 1219.57,2569.90
             1239.05,2550.75 1258.21,2531.29 1277.61,2512.06
             1281.93,2507.78 1285.41,2503.76 1285.63,2496.90
             1285.41,2490.03 1293.13,2485.11 1299.80,2485.56
             1306.88,2486.04 1312.97,2492.50 1312.97,2499.53
             1312.97,2499.53 1312.96,2500.84 1312.96,2500.84 Z
           M 121.52,1222.79
           C 111.54,1222.79 101.54,1222.43 91.58,1222.68
             83.68,1222.31 77.65,1220.66 72.17,1214.82
             61.46,1203.44 50.17,1192.59 39.09,1181.56
             34.21,1176.70 29.88,1171.60 21.99,1170.60
             15.69,1169.80 11.85,1163.27 12.00,1157.36
             11.85,1151.38 16.71,1145.68 22.48,1144.24
             28.62,1142.71 34.85,1145.20 37.89,1150.66
             38.83,1152.35 39.76,1154.44 39.61,1156.26
             39.19,1161.55 42.01,1164.87 45.44,1168.24
             57.06,1179.67 68.62,1191.17 79.99,1202.84
             83.70,1206.65 87.55,1208.61 93.07,1208.53
             114.03,1208.25 134.99,1208.37 155.95,1208.46
             160.41,1208.48 164.09,1207.53 167.87,1204.67
             174.21,1199.87 181.95,1201.17 186.62,1206.76
             190.76,1211.71 190.85,1219.27 186.82,1224.28
             182.18,1230.05 174.28,1231.73 168.20,1226.78
             163.52,1222.98 158.80,1222.50 153.43,1222.54
             142.78,1222.46 132.14,1222.52 121.49,1222.52
             121.49,1222.52 121.52,1222.79 121.52,1222.79 Z
           M 1583.13,465.35
           C 1583.13,483.33 1583.14,501.31 1583.13,519.29
             1583.13,525.58 1582.93,531.53 1587.68,537.02
             1591.40,541.31 1590.59,547.18 1587.12,551.90
             1583.71,556.55 1578.93,558.75 1573.15,557.44
             1567.49,556.16 1563.10,552.56 1562.60,546.81
             1562.26,542.90 1561.66,538.20 1565.69,534.89
             1568.03,531.28 1569.02,527.88 1569.02,523.79
             1568.97,484.50 1568.91,445.21 1568.95,405.93
             1568.93,400.87 1566.87,397.29 1564.26,393.28
             1558.80,384.89 1563.54,374.01 1573.00,372.30
             1578.72,371.27 1583.63,372.94 1587.04,377.79
             1590.42,382.59 1591.20,388.33 1587.55,392.71
             1582.99,398.20 1582.95,404.08 1582.98,410.42
             1583.06,428.73 1583.01,447.04 1583.01,465.36
             1583.01,465.36 1583.13,465.35 1583.13,465.35 Z
           M 1360.08,457.18
           C 1354.74,466.56 1350.05,474.58 1345.58,482.72
             1343.63,486.27 1341.14,488.14 1336.90,488.01
             1329.27,487.77 1321.62,487.76 1313.99,487.92
             1309.84,487.83 1307.18,486.42 1305.22,482.77
             1300.68,474.30 1295.88,465.97 1290.97,457.20
             1296.01,448.35 1300.70,439.58 1306.00,431.19
             1307.34,429.07 1310.58,428.14 1313.02,426.77
             1312.51,426.48 1314.33,426.68 1314.99,426.71
             1324.21,427.13 1333.42,427.55 1342.64,427.97
             1348.40,437.62 1354.16,447.27 1360.08,457.19
             1360.08,457.19 1360.08,457.18 1360.08,457.18 Z
           M 341.09,2418.83
           C 333.10,2418.83 325.10,2418.74 317.11,2418.81
             311.72,2418.74 306.89,2418.24 302.02,2422.57
             295.45,2426.88 287.63,2424.69 283.54,2418.66
             279.88,2413.26 280.54,2405.84 285.11,2401.20
             290.41,2395.81 297.76,2395.05 303.93,2400.53
             307.88,2404.04 311.85,2404.74 316.61,2404.71
             332.26,2404.62 347.92,2404.56 363.57,2404.74
             368.23,2404.79 371.77,2403.41 375.05,2400.04
             385.72,2389.06 396.58,2378.24 407.52,2367.52
             410.57,2364.53 411.79,2361.32 412.17,2357.04
             411.55,2350.04 417.22,2345.54 423.06,2344.36
             430.35,2342.89 437.53,2347.22 439.38,2354.18
             441.29,2361.39 437.86,2369.36 430.40,2370.70
             422.35,2372.14 417.64,2377.20 412.51,2382.31
             402.36,2392.42 392.13,2402.44 382.16,2412.73
             377.91,2417.12 373.17,2419.11 367.07,2418.91
             358.42,2418.62 349.75,2418.84 341.09,2418.84
             341.09,2418.84 341.09,2418.83 341.09,2418.83 Z
           M 1061.10,2835.91
           C 1054.30,2835.85 1048.17,2830.61 1047.30,2823.85
             1046.39,2816.78 1050.40,2809.23 1057.26,2808.83
             1065.05,2808.39 1069.17,2803.73 1073.82,2799.09
             1100.70,2772.25 1127.54,2745.35 1154.42,2718.51
             1158.21,2714.72 1161.44,2711.24 1161.52,2704.99
             1161.43,2697.91 1168.27,2692.83 1175.00,2692.84
             1181.67,2692.85 1187.83,2698.30 1188.82,2705.05
             1189.79,2711.66 1185.49,2719.17 1178.53,2719.98
             1172.10,2719.23 1168.40,2724.32 1164.41,2728.31
             1137.32,2755.42 1110.24,2782.53 1083.12,2809.61
             1078.89,2813.83 1074.97,2817.71 1074.39,2824.56
             1073.81,2831.38 1067.38,2835.84 1061.10,2835.89
             1061.10,2835.89 1061.10,2835.91 1061.10,2835.91 Z
           M 1049.82,2864.84
           C 1044.17,2864.84 1038.51,2864.82 1032.86,2864.84
             1019.70,2864.78 1011.47,2872.12 1009.72,2885.09
             1008.75,2892.31 1003.43,2897.50 996.61,2897.89
             990.00,2897.52 983.59,2893.17 982.20,2886.44
             980.87,2879.94 984.75,2872.07 991.62,2870.97
             999.11,2869.78 1003.42,2865.05 1007.65,2860.13
             1013.79,2852.99 1020.90,2849.89 1030.40,2850.54
             1040.33,2851.22 1050.37,2850.26 1060.32,2850.83
             1068.56,2851.30 1074.99,2849.36 1080.44,2842.73
             1085.49,2836.59 1091.55,2831.28 1097.27,2825.71
             1101.57,2821.52 1105.22,2817.49 1105.74,2810.70
             1105.22,2803.99 1112.62,2799.95 1119.38,2800.13
             1126.27,2800.31 1132.05,2805.60 1132.86,2812.47
             1133.61,2818.73 1129.74,2826.06 1123.14,2826.78
             1114.12,2825.80 1109.20,2833.63 1103.62,2839.15
             1096.76,2845.93 1089.88,2852.69 1083.17,2859.62
             1079.71,2863.20 1075.78,2864.98 1070.77,2864.85
             1063.79,2864.67 1056.80,2864.80 1049.81,2864.80
             1049.81,2864.80 1049.81,2864.76 1049.81,2864.76
             1049.81,2864.76 1049.82,2864.84 1049.82,2864.84 Z
           M 136.19,1264.55
           C 128.42,1264.32 123.49,1261.54 121.15,1255.94
             118.82,1250.36 120.19,1245.47 124.10,1241.22
             128.13,1236.84 134.75,1234.90 139.49,1238.41
             146.13,1243.33 153.21,1242.61 160.43,1242.62
             185.72,1242.67 211.02,1242.85 236.30,1242.52
             244.20,1242.42 250.65,1244.22 255.67,1250.53
             258.67,1254.31 262.32,1256.21 267.62,1256.27
             275.40,1256.36 280.88,1262.48 281.05,1269.59
             281.21,1276.23 275.92,1282.48 269.16,1283.66
             262.24,1284.86 255.77,1280.40 253.47,1272.84
             249.85,1260.93 244.41,1256.82 232.00,1256.81
             207.05,1256.78 182.09,1256.78 157.13,1256.77
             151.72,1256.76 146.69,1256.77 142.59,1261.50
             140.85,1263.50 137.40,1264.02 136.20,1264.55
             136.20,1264.55 136.19,1264.55 136.19,1264.55 Z
           M 1062.47,2508.05
           C 1054.14,2508.05 1045.82,2507.97 1037.49,2508.03
             1031.16,2507.96 1025.36,2507.86 1019.78,2512.61
             1014.23,2517.00 1006.21,2514.81 1001.99,2509.33
             998.26,2504.50 998.21,2497.39 1001.85,2492.58
             1006.06,2487.01 1014.17,2484.54 1019.50,2489.00
             1025.66,2494.15 1032.22,2493.90 1039.15,2493.91
             1054.80,2493.92 1070.46,2493.66 1086.10,2494.03
             1092.92,2494.19 1098.28,2492.56 1102.84,2487.27
             1107.18,2482.24 1112.16,2477.76 1116.89,2473.08
             1120.68,2469.33 1123.82,2465.74 1124.45,2459.67
             1123.63,2451.74 1131.94,2447.46 1139.37,2448.18
             1145.98,2448.82 1151.06,2453.93 1151.64,2460.55
             1152.30,2468.04 1148.04,2474.61 1140.04,2475.39
             1133.91,2474.79 1130.43,2479.28 1126.68,2483.02
             1120.31,2489.37 1113.84,2495.62 1107.63,2502.12
             1103.68,2506.26 1099.13,2508.18 1093.42,2508.08
             1083.10,2507.91 1072.77,2508.03 1062.45,2508.04
             1062.45,2508.04 1062.47,2508.05 1062.47,2508.05 Z
           M 1161.77,2610.37
           C 1161.77,2599.71 1161.73,2589.06 1161.77,2578.40
             1161.74,2571.83 1161.43,2565.58 1157.23,2559.66
             1152.70,2554.16 1155.00,2546.19 1160.52,2541.92
             1165.87,2537.78 1172.85,2537.95 1177.97,2542.35
             1183.34,2546.95 1185.01,2554.46 1180.40,2560.24
             1176.21,2565.50 1175.86,2570.94 1175.88,2576.98
             1175.97,2601.62 1175.70,2626.27 1176.04,2650.90
             1176.14,2658.46 1174.41,2664.55 1168.42,2669.39
             1164.48,2672.56 1162.03,2676.39 1161.25,2681.90
             1160.22,2689.22 1153.85,2693.21 1146.70,2692.62
             1139.88,2692.06 1134.28,2686.29 1133.95,2679.46
             1133.62,2672.86 1138.49,2666.78 1145.54,2665.14
             1148.40,2664.47 1151.83,2664.81 1154.09,2663.31
             1158.87,2660.15 1162.18,2656.01 1161.92,2649.33
             1161.42,2636.36 1161.77,2623.36 1161.78,2610.38
             1161.78,2610.38 1161.77,2610.37 1161.77,2610.37 Z
           M 971.72,1035.43
           C 971.91,1042.45 967.11,1048.34 960.18,1049.61
             953.24,1050.88 945.08,1046.30 944.75,1038.89
             944.36,1030.32 939.14,1025.86 934.05,1020.77
             913.60,1000.29 893.10,979.85 872.67,959.35
             869.13,955.80 865.72,952.88 860.16,952.14
             852.77,951.16 848.75,944.92 849.24,937.76
             848.77,930.96 855.40,925.30 862.23,924.86
             868.83,924.43 876.20,929.22 876.34,936.25
             876.51,944.15 881.22,948.19 885.85,952.83
             906.30,973.32 926.77,993.78 947.24,1014.24
             951.20,1018.20 954.79,1022.05 961.28,1022.66
             967.72,1023.27 971.54,1029.12 971.71,1035.43
             971.71,1035.43 971.72,1035.43 971.72,1035.43 Z
           M 1347.72,2336.43
           C 1347.62,2344.12 1344.19,2348.86 1338.44,2350.98
             1332.75,2353.08 1327.93,2350.55 1323.86,2347.36
             1319.61,2343.13 1317.93,2336.34 1321.77,2331.85
             1327.73,2324.90 1326.98,2317.18 1326.99,2309.31
             1326.97,2285.00 1326.98,2260.70 1326.96,2236.39
             1326.96,2231.68 1326.43,2227.54 1323.24,2223.42
             1318.07,2216.75 1319.03,2209.65 1324.55,2204.62
             1329.79,2199.85 1337.37,2199.69 1342.78,2204.24
             1348.36,2208.93 1349.71,2216.70 1344.88,2223.04
             1341.75,2227.14 1341.05,2231.22 1341.06,2235.96
             1341.13,2262.26 1341.13,2288.57 1341.06,2314.87
             1341.04,2320.58 1341.06,2326.01 1345.48,2330.62
             1347.12,2332.34 1347.32,2335.44 1347.67,2336.43
             1347.67,2336.43 1347.72,2336.43 1347.72,2336.43 Z
           M 1089.77,671.44
           C 1089.62,678.91 1086.76,683.12 1081.46,685.55
             1076.19,687.97 1069.84,684.56 1065.87,682.31
             1061.74,677.91 1059.97,671.31 1063.79,666.80
             1069.69,659.85 1069.00,652.14 1069.01,644.26
             1069.00,620.95 1068.99,597.65 1069.00,574.35
             1069.00,568.69 1068.83,563.55 1064.75,558.53
             1059.75,552.38 1061.49,544.58 1067.35,539.95
             1072.62,535.78 1079.67,535.87 1084.80,540.17
             1090.38,544.85 1091.83,552.71 1086.92,558.94
             1083.42,563.38 1083.10,567.86 1083.11,572.86
             1083.14,598.49 1083.14,624.12 1083.11,649.76
             1083.11,655.42 1082.73,660.96 1087.48,665.52
             1089.16,667.13 1089.35,670.31 1089.74,671.43
             1089.74,671.43 1089.77,671.44 1089.77,671.44 Z
           M 434.99,758.43
           C 435.20,765.19 429.94,771.45 423.22,772.44
             415.75,773.55 407.99,769.15 407.85,761.81
             407.70,753.94 403.17,749.82 398.51,745.17
             380.39,727.06 362.27,708.96 344.18,690.82
             340.88,687.51 337.73,684.80 332.44,684.33
             324.60,683.64 319.60,677.10 320.03,670.06
             319.62,663.41 326.26,657.45 332.93,656.86
             339.93,656.24 346.74,661.25 347.49,668.95
             348.00,674.16 350.45,677.44 353.80,680.78
             373.13,700.03 392.42,719.32 411.65,738.67
             414.99,742.03 418.40,744.42 423.42,745.27
             430.50,746.46 434.80,752.16 435.00,758.42
             435.00,758.42 434.99,758.43 434.99,758.43 Z
           M 1205.77,941.21
           C 1205.77,928.55 1205.74,915.90 1205.75,903.24
             1205.73,898.54 1205.19,894.36 1202.34,890.10
             1197.94,883.50 1199.86,875.87 1205.81,871.58
             1211.31,867.61 1218.22,868.03 1223.24,872.63
             1228.64,877.58 1229.81,885.69 1224.48,891.43
             1220.28,895.94 1219.84,900.62 1219.85,906.02
             1219.91,928.67 1219.90,951.32 1219.86,973.97
             1219.86,980.62 1219.53,986.88 1225.21,992.35
             1229.29,996.28 1228.72,1002.28 1225.58,1007.22
             1222.47,1012.13 1217.78,1014.42 1211.95,1013.67
             1206.24,1012.93 1201.07,1008.45 1200.45,1002.71
             1200.09,999.33 1200.26,995.02 1202.54,992.42
             1205.63,988.19 1205.73,983.85 1205.73,979.20
             1205.73,966.54 1205.73,953.89 1205.73,941.23
             1205.73,941.23 1205.77,941.21 1205.77,941.21 Z
           M 375.77,2350.34
           C 375.45,2360.96 363.77,2367.75 354.98,2361.51
             349.26,2357.45 343.67,2356.78 337.32,2356.80
             316.36,2356.72 295.40,2356.73 274.44,2356.80
             269.70,2356.78 265.60,2356.13 261.51,2360.60
             254.91,2365.65 247.71,2364.64 242.73,2359.15
             238.15,2354.10 238.04,2346.07 242.49,2340.87
             247.21,2335.36 255.04,2334.02 261.25,2339.04
             265.40,2342.39 269.56,2342.68 274.21,2342.68
             296.50,2342.68 318.79,2342.65 341.08,2342.71
             345.82,2342.72 350.04,2342.26 353.97,2338.82
             358.36,2334.97 363.83,2335.06 368.91,2337.93
             373.64,2340.60 375.93,2344.85 375.78,2350.34
             375.78,2350.34 375.77,2350.34 375.77,2350.34 Z
           M 1037.67,2439.12
           C 1037.52,2442.83 1034.94,2446.92 1030.04,2449.27
             1025.19,2451.59 1019.77,2451.77 1015.99,2447.95
             1011.18,2443.09 1005.73,2442.72 999.61,2442.77
             979.65,2442.61 959.67,2442.67 939.70,2442.73
             933.98,2442.71 928.86,2442.48 924.22,2447.65
             919.94,2451.96 913.17,2451.61 908.47,2446.89
             903.67,2443.62 901.22,2438.99 902.21,2433.19
             901.24,2427.50 906.55,2423.03 912.31,2422.12
             915.93,2421.55 920.53,2422.12 923.53,2424.01
             927.53,2426.54 931.42,2427.09 935.78,2427.09
             958.08,2427.07 980.39,2427.01 1002.68,2427.14
             1008.13,2427.17 1012.76,2426.01 1017.67,2423.19
             1027.09,2417.79 1038.06,2425.05 1037.67,2437.52
             1037.67,2437.52 1037.67,2439.12 1037.67,2439.12 Z
           M 1312.94,2430.07
           C 1312.86,2436.35 1308.58,2442.24 1301.55,2443.39
             1296.11,2442.50 1292.57,2447.03 1289.01,2450.63
             1273.77,2466.01 1258.49,2481.36 1243.05,2496.54
             1238.70,2500.82 1235.48,2505.27 1233.80,2511.40
             1231.75,2518.86 1224.29,2522.17 1217.09,2520.17
             1210.13,2518.23 1205.92,2511.01 1207.51,2503.72
             1208.78,2497.89 1213.56,2493.10 1220.36,2493.12
             1226.11,2493.14 1229.55,2490.54 1233.16,2486.89
             1248.39,2471.49 1263.70,2456.18 1279.10,2440.95
             1282.75,2437.34 1285.22,2433.80 1285.52,2428.16
             1285.10,2420.34 1292.40,2415.66 1299.94,2416.13
             1307.13,2416.58 1313.05,2422.91 1312.96,2430.06
             1312.96,2430.06 1312.94,2430.07 1312.94,2430.07 Z
           M 1118.97,2711.67
           C 1119.11,2718.69 1113.94,2725.17 1106.04,2725.61
             1100.31,2725.29 1096.92,2728.67 1093.39,2732.28
             1087.11,2738.71 1080.59,2744.89 1074.38,2751.38
             1070.66,2755.26 1066.39,2757.03 1061.04,2756.84
             1055.39,2756.64 1049.73,2756.79 1044.08,2756.80
             1037.72,2756.69 1032.00,2756.61 1026.71,2762.02
             1021.61,2766.85 1013.33,2765.28 1008.72,2760.23
             1004.38,2755.46 1003.97,2747.87 1007.78,2742.72
             1011.93,2737.11 1019.33,2734.99 1025.50,2738.79
             1037.37,2746.12 1050.06,2741.70 1062.39,2742.08
             1064.18,2742.14 1066.21,2739.66 1067.85,2738.07
             1073.11,2732.98 1078.23,2727.75 1083.42,2722.59
             1087.40,2718.62 1091.07,2714.96 1091.82,2708.53
             1090.99,2701.38 1099.50,2697.45 1106.60,2698.20
             1113.35,2698.92 1118.86,2704.91 1118.99,2711.68
             1118.99,2711.68 1118.97,2711.67 1118.97,2711.67 Z
           M 1040.98,2791.53
           C 1040.31,2797.30 1037.52,2802.48 1031.42,2803.85
             1025.70,2805.13 1022.12,2808.64 1018.37,2812.40
             1011.78,2819.01 1005.06,2825.49 998.61,2832.22
             994.64,2836.36 990.06,2838.30 984.35,2838.09
             979.70,2837.92 975.03,2838.05 970.37,2838.06
             965.00,2837.98 960.23,2837.65 955.52,2842.22
             949.77,2846.80 942.08,2845.21 937.53,2840.00
             932.86,2834.65 932.85,2827.09 937.53,2821.76
             942.21,2816.43 949.67,2814.83 955.49,2819.49
             964.85,2826.99 975.26,2823.07 985.22,2823.41
             987.33,2823.48 989.78,2820.93 991.66,2819.16
             996.75,2814.36 1001.50,2809.21 1006.60,2804.42
             1010.85,2800.43 1013.67,2796.47 1013.46,2789.92
             1013.20,2782.09 1020.72,2776.23 1028.11,2776.91
             1035.19,2777.56 1041.16,2784.18 1040.98,2791.55
             1040.98,2791.55 1040.98,2791.53 1040.98,2791.53 Z
           M 1282.71,910.66
           C 1273.39,913.28 1267.52,907.91 1262.84,898.32
             1255.35,882.96 1254.59,888.15 1262.58,873.41
             1271.27,858.37 1267.18,860.97 1284.90,860.75
             1286.23,860.73 1287.59,860.93 1288.89,860.74
             1295.82,859.69 1299.78,862.81 1302.98,868.93
             1314.01,890.00 1314.07,882.77 1304.81,899.04
             1297.01,912.76 1301.05,910.40 1282.19,910.67
             1282.19,910.67 1282.71,910.66 1282.71,910.66 Z
           M 1435.07,550.81
           C 1441.68,550.86 1447.78,555.59 1448.61,563.05
             1449.23,568.62 1452.02,572.06 1455.60,575.60
             1466.47,586.34 1477.26,597.15 1488.01,608.01
             1491.33,611.36 1494.59,613.83 1499.80,614.34
             1507.73,615.13 1512.20,621.37 1511.69,628.86
             1511.23,635.70 1505.63,641.32 1498.78,641.81
             1492.18,641.33 1485.24,637.76 1484.51,630.56
             1483.83,623.81 1480.14,619.83 1475.88,615.62
             1465.95,605.82 1456.11,595.93 1446.27,586.04
             1442.29,582.04 1438.57,578.59 1432.11,578.08
             1424.57,577.49 1420.30,570.30 1421.29,562.80
             1420.40,556.10 1428.34,550.74 1435.07,550.79
             1435.07,550.79 1435.07,550.81 1435.07,550.81 Z
           M 1227.93,292.83
           C 1234.64,292.83 1240.66,297.65 1241.45,304.99
             1241.96,309.70 1243.82,312.97 1247.03,316.11
             1256.77,325.64 1266.39,335.30 1275.96,345.00
             1278.84,347.92 1281.79,349.76 1286.18,350.25
             1294.16,351.14 1299.15,357.20 1298.94,364.23
             1298.72,371.29 1292.51,377.55 1285.44,377.82
             1278.39,377.55 1272.15,373.11 1271.42,365.16
             1270.97,360.27 1268.61,357.27 1265.51,354.20
             1256.54,345.31 1247.58,336.40 1238.73,327.39
             1234.95,323.54 1231.24,320.65 1225.25,320.12
             1217.80,319.46 1213.03,311.93 1214.10,304.95
             1215.13,298.23 1221.30,292.81 1227.93,292.81
             1227.93,292.81 1227.93,292.83 1227.93,292.83 Z
           M 1082.15,2692.63
           C 1075.16,2692.53 1069.26,2687.78 1068.12,2680.88
             1067.03,2674.32 1071.27,2666.26 1078.19,2665.91
             1087.90,2665.41 1092.79,2659.06 1098.62,2653.35
             1102.67,2649.39 1106.59,2645.31 1110.64,2641.36
             1115.15,2636.95 1119.30,2632.87 1119.79,2625.59
             1119.33,2618.75 1127.88,2614.17 1134.47,2614.98
             1140.82,2615.76 1146.21,2621.22 1146.89,2627.56
             1147.60,2634.19 1142.97,2641.59 1136.06,2642.11
             1129.25,2641.59 1125.25,2646.34 1121.05,2650.63
             1115.23,2656.58 1109.32,2662.45 1103.40,2668.29
             1099.37,2672.26 1095.77,2676.00 1095.10,2682.42
             1094.43,2688.82 1088.51,2692.56 1082.15,2692.64
             1082.15,2692.64 1082.15,2692.63 1082.15,2692.63 Z
           M 1219.78,90.11
           C 1219.78,86.79 1219.77,83.46 1219.78,80.14
             1219.76,74.83 1219.70,69.85 1215.59,65.35
             1211.93,61.49 1212.27,56.05 1214.79,51.29
             1217.32,46.51 1221.47,44.05 1226.98,44.05
             1237.18,44.05 1245.00,55.33 1239.15,63.49
             1233.43,71.46 1234.02,79.53 1233.92,88.03
             1233.87,92.02 1233.98,96.01 1233.90,100.00
             1233.79,105.36 1234.33,110.14 1238.01,114.83
             1242.95,121.11 1241.49,128.75 1235.79,133.49
             1230.84,137.61 1223.31,137.66 1218.28,133.36
             1212.62,128.81 1211.57,121.22 1215.68,114.53
             1218.43,110.07 1219.80,101.84 1219.79,89.85
             1219.79,89.85 1219.78,90.11 1219.78,90.11 Z
           M 1501.10,710.51
           C 1494.54,709.00 1488.61,712.25 1485.35,706.99
             1481.37,700.56 1475.46,693.54 1475.57,686.87
             1475.46,680.14 1481.21,672.66 1486.23,667.21
             1488.77,664.45 1495.39,664.93 1500.17,664.88
             1504.59,664.83 1510.18,662.72 1513.21,667.29
             1517.40,673.61 1523.37,680.62 1523.37,687.33
             1523.37,694.03 1517.83,701.50 1512.97,707.11
             1510.40,710.07 1504.08,709.77 1501.10,710.53
             1501.10,710.53 1501.10,710.51 1501.10,710.51 Z
           M 1551.86,223.40
           C 1548.32,229.64 1544.89,235.69 1541.44,241.74
             1541.11,241.16 1540.78,242.91 1540.34,243.40
             1536.00,248.22 1514.79,246.78 1511.17,241.43
             1510.80,240.88 1510.50,240.28 1510.16,239.71
             1500.07,223.07 1500.20,220.00 1511.69,204.48
             1515.92,198.77 1537.60,198.83 1541.39,204.83
             1545.11,210.71 1548.26,216.96 1551.86,223.41
             1551.86,223.41 1551.86,223.40 1551.86,223.40 Z
           M 692.46,2362.85
           C 688.43,2361.79 682.57,2362.01 680.11,2359.23
             675.62,2354.15 670.57,2347.32 670.51,2341.18
             670.45,2335.07 675.77,2328.58 679.61,2322.87
             683.22,2317.53 689.43,2320.37 694.47,2320.20
             698.52,2320.07 703.63,2318.17 706.42,2322.76
             710.02,2328.68 715.67,2335.13 715.40,2341.14
             715.11,2347.64 709.79,2354.53 705.15,2359.95
             703.00,2362.46 697.25,2361.88 692.45,2362.84
             692.45,2362.84 692.46,2362.85 692.46,2362.85 Z
           M 614.53,1347.66
           C 609.94,1346.53 604.48,1346.82 602.17,1344.26
             598.07,1339.73 593.58,1333.49 593.55,1327.94
             593.52,1322.42 598.47,1316.67 601.82,1311.40
             604.67,1306.91 609.73,1308.74 613.82,1308.86
             617.93,1308.99 623.46,1308.90 625.76,1311.35
             629.93,1315.80 634.50,1322.05 634.55,1327.59
             634.60,1333.09 630.06,1339.32 626.03,1343.91
             623.73,1346.53 618.42,1346.51 614.53,1347.66 Z
           M 1096.47,2433.26
           C 1099.77,2434.26 1104.32,2434.27 1106.17,2436.50
             1109.65,2440.71 1113.63,2446.24 1113.56,2451.17
             1113.49,2456.12 1109.50,2461.72 1105.75,2465.62
             1103.60,2467.86 1098.51,2467.82 1094.76,2467.80
             1091.36,2467.78 1086.65,2467.49 1084.84,2465.35
             1081.33,2461.20 1077.41,2455.65 1077.46,2450.71
             1077.41,2445.76 1081.44,2440.16 1085.13,2436.21
             1087.30,2433.88 1092.32,2434.22 1096.49,2433.25
             1096.49,2433.25 1096.47,2433.26 1096.47,2433.26 Z
           M 2286.80,589.44
           C 2286.80,589.44 2286.40,588.91 2286.40,588.91
             2286.40,588.91 2285.95,588.53 2285.94,588.53
             2285.93,588.53 2285.88,588.38 2285.88,588.38
             2285.88,588.38 2286.80,589.44 2286.80,589.44 Z
           M 2040.18,202.75
           C 2040.18,202.75 2040.86,202.69 2040.86,202.69
             2040.58,202.54 2040.31,202.38 2040.03,202.23
             2039.91,202.04 2039.78,201.84 2039.64,201.65
             2039.62,201.65 2039.40,201.59 2039.40,201.59
             2039.40,201.59 2040.18,202.75 2040.18,202.75 Z
           M 2845.53,1100.48
           C 2845.45,1100.42 2845.36,1100.37 2845.28,1100.31
             2845.28,1100.31 2845.03,1100.14 2845.03,1100.14
             2845.03,1100.14 2845.53,1100.48 2845.53,1100.48 Z" />
</svg>
