<?xml version="1.0" encoding="UTF-8" standalone="no"?>
<!DOCTYPE svg PUBLIC "-//W3C//DTD SVG 20010904//EN"
              "http://www.w3.org/TR/2001/REC-SVG-20010904/DTD/svg10.dtd">

<svg xmlns="http://www.w3.org/2000/svg"
     width="31.8778in" height="33.0222in"
     viewBox="0 0 2869 2972">
  <path id="Imported Path #97"
        fill="none" stroke="black" stroke-width="1"
        d="M 2286.87,589.29
           C 2283.93,591.41 2280.60,593.16 2278.12,595.73
             2267.36,606.87 2254.80,615.63 2241.47,623.24
             2228.63,630.58 2216.79,639.10 2206.94,650.17
             2198.90,659.20 2188.98,664.82 2177.29,667.60
             2167.57,669.91 2157.96,672.68 2148.19,674.77
             2131.23,678.40 2114.30,677.79 2097.90,672.08
             2078.92,665.47 2059.83,666.86 2040.66,670.27
             2037.91,669.78 2035.16,672.43 2032.85,674.16
             2012.31,689.51 1991.77,704.86 1971.42,720.46
             1951.60,735.66 1931.85,750.96 1912.38,766.60
             1906.18,771.58 1900.58,777.45 1895.38,783.49
             1883.06,797.80 1868.59,809.39 1852.36,818.90
             1841.15,825.47 1829.87,831.93 1818.74,838.63
             1795.17,852.81 1776.00,871.38 1762.24,895.39
             1752.71,912.02 1739.45,923.83 1721.72,932.38
             1708.55,938.73 1697.12,949.44 1686.28,959.64
             1672.47,972.63 1660.09,987.13 1646.97,1000.87
             1643.38,1004.64 1641.36,1008.78 1640.65,1014.03
             1639.03,1026.04 1638.42,1038.03 1641.62,1049.76
             1646.08,1066.09 1655.20,1078.21 1672.42,1083.33
             1696.39,1090.46 1720.50,1089.75 1744.65,1085.54
             1780.83,1079.24 1816.07,1069.38 1850.66,1057.01
             1856.92,1054.77 1861.99,1051.65 1865.74,1046.26
             1875.07,1032.88 1884.72,1019.71 1893.62,1006.05
             1900.71,995.18 1907.17,983.86 1913.42,972.47
             1933.60,935.70 1959.61,903.16 1987.14,871.86
             1998.53,858.91 2011.54,847.21 2024.86,836.21
             2044.11,820.31 2058.60,801.39 2067.33,777.99
             2069.03,773.43 2071.48,769.14 2073.58,764.72
             2072.88,764.62 2074.99,764.92 2075.69,765.02
             2075.97,767.38 2076.79,769.81 2076.45,772.07
             2073.61,790.83 2070.64,809.58 2067.47,828.29
             2066.99,831.14 2065.53,833.94 2064.07,836.51
             2051.49,858.51 2039.81,880.85 2031.11,904.81
             2027.82,913.85 2020.49,921.51 2014.55,929.47
             2008.00,938.26 2000.44,946.33 1994.23,955.34
             1988.21,964.07 1986.06,974.23 1987.34,984.91
             1987.53,986.49 1988.06,988.03 1988.74,990.92
             1993.15,989.10 1997.16,987.86 2000.78,985.90
             2025.96,972.22 2051.00,958.31 2076.20,944.66
             2082.03,941.50 2088.13,938.69 2094.36,936.43
             2130.70,923.20 2166.29,908.43 2200.93,891.05
             2222.55,880.20 2245.91,872.75 2268.68,864.28
             2283.99,858.58 2299.36,853.56 2312.42,842.94
             2318.21,838.23 2325.79,835.50 2332.87,832.68
             2346.16,827.38 2356.36,819.16 2362.21,805.75
             2364.19,801.22 2366.93,796.88 2370.04,793.02
             2382.06,778.09 2391.32,761.61 2398.57,743.93
             2405.52,726.98 2412.46,710.02 2419.44,693.08
             2420.64,690.17 2422.00,687.32 2423.29,684.44
             2422.49,684.25 2424.90,684.83 2425.70,685.02
             2423.85,702.77 2421.99,720.51 2420.14,738.26
             2418.63,752.80 2415.58,767.39 2415.98,781.88
             2416.64,805.69 2423.56,809.50 2445.67,804.53
             2462.33,800.78 2478.02,792.60 2494.01,786.11
             2498.61,784.25 2502.63,780.88 2507.28,779.18
             2520.77,774.26 2530.67,764.01 2542.07,756.06
             2547.09,752.56 2550.41,746.65 2554.60,741.92
             2556.91,739.31 2559.43,736.87 2562.57,734.93
             2560.61,743.96 2556.66,751.94 2550.74,758.56
             2537.20,773.70 2523.76,789.00 2509.23,803.16
             2495.65,816.40 2481.20,828.84 2466.28,840.57
             2445.29,857.08 2420.62,866.75 2395.27,874.03
             2375.46,879.72 2355.21,884.14 2334.92,887.76
             2301.63,893.71 2277.51,912.64 2256.92,939.85
             2261.23,945.64 2265.16,951.74 2269.92,957.11
             2275.48,963.38 2282.94,966.80 2291.37,965.88
             2306.24,964.27 2321.32,963.14 2335.81,959.70
             2371.36,951.25 2407.52,948.85 2443.75,946.29
             2464.01,944.86 2484.21,942.59 2504.38,940.22
             2511.80,939.35 2519.06,937.09 2526.58,935.43
             2526.36,936.58 2526.46,937.41 2526.09,937.82
             2503.47,962.88 2477.27,982.31 2443.10,987.97
             2425.37,990.91 2407.35,991.99 2389.54,994.51
             2369.11,997.40 2348.64,1000.29 2328.47,1004.51
             2318.88,1006.52 2310.04,1011.90 2300.65,1015.18
             2294.48,1017.33 2287.88,1019.99 2281.58,1019.72
             2266.98,1019.10 2252.46,1016.73 2237.89,1015.28
             2217.69,1013.27 2197.48,1011.25 2177.25,1009.70
             2173.16,1009.39 2168.32,1009.27 2164.83,1012.13
             2120.44,1037.56 2073.12,1056.49 2025.88,1075.68
             1974.35,1096.60 1923.05,1118.07 1871.70,1139.42
             1868.06,1140.93 1864.58,1143.10 1861.43,1145.50
             1848.10,1155.64 1833.74,1163.94 1818.39,1170.62
             1810.45,1174.08 1802.84,1178.29 1794.90,1181.74
             1768.83,1193.07 1744.55,1207.33 1721.32,1223.77
             1709.02,1232.47 1697.46,1241.52 1686.92,1252.33
             1673.68,1265.92 1659.33,1278.44 1645.24,1291.18
             1627.54,1307.20 1615.24,1326.63 1607.17,1349.00
             1599.14,1371.26 1605.98,1390.55 1626.61,1402.46
             1636.64,1408.25 1647.75,1410.52 1659.00,1412.01
             1690.59,1416.21 1722.21,1414.39 1753.77,1411.77
             1757.44,1411.47 1761.30,1409.21 1764.40,1406.94
             1783.81,1392.74 1801.98,1377.11 1817.94,1359.02
             1822.79,1353.52 1827.78,1348.14 1832.62,1342.64
             1850.69,1322.10 1872.07,1305.95 1896.65,1293.95
             1911.02,1286.94 1925.45,1279.99 1939.45,1272.30
             1949.64,1266.70 1959.53,1260.41 1968.93,1253.57
             1982.10,1243.98 1992.22,1231.56 1998.18,1216.28
             2005.32,1197.99 2016.61,1183.40 2033.15,1172.56
             2040.25,1167.90 2046.28,1161.61 2053.03,1155.86
             2052.14,1157.02 2055.01,1157.81 2054.94,1158.46
             2053.73,1169.80 2051.37,1180.88 2044.33,1190.18
             2032.39,1205.98 2022.57,1222.90 2016.27,1241.75
             2013.33,1250.55 2008.02,1257.86 2001.32,1263.90
             1989.20,1274.82 1976.74,1285.36 1964.09,1295.67
             1952.21,1305.35 1939.84,1314.43 1927.85,1323.97
             1920.77,1329.60 1915.14,1336.30 1910.93,1344.62
             1907.70,1351.00 1902.05,1356.15 1897.42,1361.80
             1891.68,1368.81 1887.58,1376.18 1891.65,1385.55
             1891.77,1385.83 1892.09,1386.03 1893.20,1387.20
             1895.95,1386.54 1899.41,1385.83 1902.79,1384.87
             1958.21,1369.09 2013.59,1353.18 2069.04,1337.55
             2080.89,1334.21 2092.95,1331.54 2105.04,1329.18
             2110.76,1328.06 2114.78,1325.49 2117.73,1320.63
             2122.23,1313.24 2126.81,1305.89 2131.50,1298.62
             2137.44,1289.40 2143.05,1279.91 2149.68,1271.20
             2156.50,1262.24 2163.62,1253.61 2168.45,1242.69
             2168.19,1244.74 2169.25,1246.81 2169.18,1248.85
             2168.70,1262.87 2167.32,1276.74 2162.48,1290.09
             2159.14,1299.30 2157.97,1308.72 2160.65,1318.57
             2167.61,1318.57 2174.19,1318.89 2180.73,1318.51
             2209.31,1316.86 2237.98,1315.82 2266.46,1313.04
             2304.42,1309.33 2340.94,1298.66 2377.25,1287.40
             2379.16,1286.81 2381.03,1286.03 2382.98,1285.65
             2403.75,1281.58 2415.73,1267.14 2423.80,1249.30
             2431.06,1233.24 2437.09,1216.58 2442.87,1199.92
             2449.24,1181.57 2456.82,1164.03 2467.99,1147.93
             2473.62,1139.81 2477.12,1130.22 2481.56,1121.28
             2491.30,1101.66 2501.02,1082.02 2510.75,1062.40
             2510.01,1062.26 2512.23,1062.68 2512.98,1062.83
             2512.98,1065.50 2513.33,1068.22 2512.92,1070.82
             2509.74,1091.29 2504.43,1111.10 2496.72,1130.44
             2487.25,1154.24 2478.85,1178.49 2470.74,1202.79
             2468.26,1210.23 2467.66,1218.46 2467.22,1226.39
             2466.63,1237.15 2469.37,1243.58 2477.33,1253.74
             2480.35,1252.76 2483.81,1251.82 2487.13,1250.54
             2508.25,1242.38 2529.72,1234.97 2550.39,1225.76
             2586.11,1209.83 2623.73,1201.82 2662.10,1196.37
             2672.32,1194.92 2682.55,1193.50 2692.76,1191.92
             2708.74,1189.45 2723.83,1184.24 2737.69,1175.91
             2763.68,1160.29 2789.55,1144.48 2815.40,1128.65
             2824.60,1123.02 2832.22,1115.65 2838.61,1106.92
             2840.45,1104.41 2843.22,1102.57 2845.56,1100.43
             2845.56,1100.43 2845.31,1100.26 2845.31,1100.26
             2841.22,1113.65 2836.55,1126.86 2827.18,1137.57
             2818.19,1147.84 2808.79,1157.79 2799.21,1167.51
             2781.94,1185.04 2761.66,1198.30 2739.26,1208.40
             2733.84,1210.84 2728.49,1213.43 2722.95,1216.02
             2729.75,1224.05 2737.98,1226.36 2748.96,1222.96
             2771.58,1215.95 2794.76,1214.37 2818.16,1215.93
             2825.29,1216.41 2832.67,1218.39 2839.20,1221.31
             2848.54,1225.49 2857.49,1229.43 2869.02,1223.81
             2866.77,1230.48 2862.95,1232.37 2858.65,1232.32
             2852.39,1232.24 2845.86,1232.15 2839.93,1230.42
             2826.12,1226.38 2812.61,1225.11 2798.71,1229.85
             2794.37,1231.33 2789.55,1231.35 2784.95,1232.08
             2772.82,1234.01 2760.63,1235.64 2748.59,1238.03
             2740.65,1239.61 2732.95,1240.36 2724.85,1239.06
             2712.36,1237.07 2699.77,1235.60 2687.18,1234.51
             2682.68,1234.12 2677.78,1234.32 2673.50,1236.13
             2640.99,1247.07 2608.29,1257.53 2577.02,1271.87
             2567.78,1276.10 2565.73,1280.27 2569.59,1289.72
             2572.72,1297.38 2577.16,1303.86 2586.11,1305.61
             2587.27,1305.84 2588.33,1306.56 2589.12,1307.81
             2577.73,1306.99 2566.89,1304.26 2559.13,1295.28
             2551.22,1286.13 2542.70,1284.72 2531.50,1288.91
             2515.30,1294.97 2498.72,1300.14 2482.08,1304.88
             2454.12,1312.84 2427.38,1323.97 2400.55,1334.95
             2388.57,1339.86 2376.12,1343.61 2363.84,1347.76
             2358.79,1349.47 2353.61,1350.75 2348.54,1352.39
             2282.97,1373.62 2216.46,1391.77 2150.81,1412.72
             2134.85,1417.81 2127.31,1427.22 2125.08,1444.76
             2124.63,1448.26 2126.22,1452.84 2128.44,1455.72
             2136.32,1465.94 2146.13,1473.55 2159.21,1476.55
             2187.42,1483.01 2216.09,1484.25 2244.69,1482.65
             2271.24,1481.16 2297.69,1477.43 2324.10,1474.02
             2340.70,1471.87 2357.25,1471.09 2373.94,1472.17
             2382.25,1472.71 2390.57,1473.23 2398.89,1473.34
             2401.73,1473.38 2404.68,1472.37 2407.43,1471.41
             2414.50,1468.94 2421.42,1465.96 2428.92,1465.40
             2428.53,1464.72 2428.13,1466.76 2430.10,1467.44
             2426.65,1470.18 2423.44,1473.34 2419.69,1475.57
             2410.33,1481.11 2399.80,1484.22 2389.16,1484.02
             2343.98,1483.17 2300.70,1494.66 2256.91,1503.09
             2240.89,1506.17 2224.80,1509.07 2208.61,1510.93
             2200.16,1509.96 2191.33,1510.72 2182.86,1509.93
             2170.68,1508.20 2158.54,1505.83 2146.62,1502.81
             2136.69,1500.29 2126.54,1497.55 2117.48,1492.96
             2084.30,1476.15 2048.72,1468.09 2012.45,1462.12
             2007.32,1461.28 2002.74,1461.94 1997.90,1464.08
             1965.31,1476.10 1933.46,1489.65 1904.07,1508.38
             1892.59,1515.69 1879.55,1516.56 1866.69,1517.96
             1809.06,1524.25 1751.40,1530.24 1693.78,1536.51
             1651.17,1541.15 1610.91,1553.35 1573.99,1575.41
             1565.45,1580.51 1557.60,1586.78 1549.55,1592.67
             1545.62,1595.54 1543.83,1599.49 1543.15,1604.52
             1537.04,1649.41 1530.61,1694.26 1524.40,1739.14
             1523.81,1743.40 1523.85,1747.78 1523.91,1752.10
             1524.25,1778.80 1522.81,1805.26 1518.07,1831.68
             1510.49,1873.93 1509.85,1916.58 1515.90,1959.12
             1522.09,2002.64 1528.88,2046.08 1535.44,2089.55
             1535.84,2092.18 1536.75,2094.73 1537.11,2097.36
             1541.15,2126.58 1555.08,2150.54 1575.34,2171.53
             1592.75,2189.58 1611.41,2206.02 1631.57,2220.95
             1640.02,2227.21 1649.02,2231.77 1658.63,2235.53
             1708.66,2255.12 1759.41,2272.52 1812.62,2281.09
             1834.93,2284.68 1857.66,2285.65 1880.19,2287.95
             1909.01,2290.89 1937.86,2293.74 1966.65,2297.07
             1998.15,2300.71 2029.66,2302.64 2061.39,2301.98
             2083.69,2301.51 2106.02,2302.64 2128.34,2302.89
             2146.99,2303.10 2165.67,2303.75 2184.29,2303.05
             2250.61,2300.56 2317.00,2299.07 2383.11,2305.07
             2424.00,2308.78 2464.78,2311.60 2505.79,2311.06
             2508.45,2311.03 2511.13,2311.18 2513.77,2311.51
             2539.55,2314.67 2565.36,2317.66 2591.10,2321.16
             2617.20,2324.70 2643.29,2328.01 2669.69,2328.10
             2672.86,2328.11 2676.04,2328.64 2679.21,2328.93
             2679.43,2329.66 2679.66,2330.39 2679.88,2331.12
             2677.92,2332.31 2676.08,2334.23 2673.98,2334.56
             2661.54,2336.55 2649.07,2339.10 2636.55,2339.63
             2623.62,2339.08 2610.57,2338.99 2597.62,2337.94
             2579.26,2336.45 2561.12,2337.22 2542.81,2339.42
             2532.78,2340.63 2522.04,2339.36 2512.10,2337.25
             2467.75,2327.28 2422.71,2328.94 2377.80,2328.41
             2372.71,2328.35 2367.61,2329.84 2362.24,2332.50
             2364.31,2333.84 2366.27,2335.45 2368.48,2336.50
             2392.08,2347.65 2416.12,2357.02 2442.68,2358.73
             2451.85,2359.32 2461.02,2362.14 2469.89,2364.90
             2490.77,2371.41 2512.06,2374.47 2533.88,2374.43
             2548.21,2374.40 2562.55,2374.40 2576.88,2374.51
             2592.33,2374.63 2607.33,2377.06 2621.90,2382.52
             2630.54,2385.76 2639.55,2388.02 2650.65,2391.42
             2645.29,2393.67 2641.72,2396.08 2637.89,2396.58
             2632.07,2395.83 2625.68,2398.10 2620.21,2396.53
             2590.09,2387.89 2559.38,2390.67 2528.79,2390.83
             2526.16,2390.82 2523.51,2390.15 2520.92,2392.11
             2519.72,2391.83 2518.65,2393.22 2516.62,2394.27
             2518.07,2396.44 2518.86,2398.76 2520.48,2399.81
             2524.37,2402.34 2528.50,2404.60 2532.78,2406.40
             2545.17,2411.61 2556.87,2417.69 2566.06,2427.93
             2571.54,2434.04 2579.37,2435.21 2587.03,2436.07
             2592.63,2436.70 2598.30,2436.75 2605.22,2437.12
             2599.60,2443.90 2592.70,2446.32 2585.72,2445.66
             2569.87,2444.15 2553.85,2442.71 2540.64,2431.83
             2536.88,2428.73 2531.96,2426.96 2527.42,2424.90
             2509.21,2416.63 2491.22,2408.12 2474.83,2396.34
             2468.51,2391.80 2460.68,2388.74 2453.08,2386.75
             2433.75,2381.70 2414.25,2377.25 2394.66,2373.36
             2384.60,2371.36 2374.15,2371.40 2363.96,2369.92
             2354.47,2368.55 2344.40,2368.00 2335.80,2364.29
             2303.72,2350.44 2270.26,2346.61 2235.97,2349.15
             2213.26,2350.83 2190.79,2350.72 2168.16,2348.32
             2152.96,2346.71 2137.57,2346.96 2122.26,2346.46
             2099.64,2345.72 2077.01,2345.11 2054.39,2344.33
             2037.75,2343.76 2021.10,2343.16 2004.47,2342.28
             1988.18,2341.42 1971.91,2340.16 1955.62,2339.15
             1952.40,2338.95 1949.15,2339.12 1945.37,2339.12
             1945.00,2344.54 1949.70,2346.40 1952.98,2347.85
             1971.85,2356.15 1988.70,2368.68 2008.70,2374.61
             2009.51,2374.85 2010.10,2375.79 2012.37,2377.80
             2007.40,2376.89 2003.72,2380.22 2000.24,2379.84
             1992.33,2378.99 1984.46,2377.46 1976.68,2375.75
             1968.88,2374.04 1961.26,2371.52 1953.45,2369.82
             1942.00,2367.33 1931.27,2363.31 1920.63,2358.24
             1903.17,2349.93 1884.68,2344.37 1865.34,2341.91
             1856.77,2340.82 1848.26,2339.08 1839.81,2337.23
             1827.10,2334.44 1814.33,2333.82 1800.00,2334.74
             1802.04,2337.53 1803.14,2339.44 1804.62,2340.97
             1819.41,2356.29 1836.24,2368.23 1856.81,2374.99
             1872.29,2380.08 1887.06,2387.30 1902.47,2392.61
             1914.69,2396.82 1927.41,2399.57 1939.91,2402.98
             1946.64,2404.81 1953.92,2405.59 1960.00,2408.71
             1979.89,2418.91 2000.99,2420.71 2022.38,2417.69
             2078.76,2409.72 2135.04,2400.93 2191.35,2392.45
             2193.32,2392.15 2195.38,2391.93 2197.20,2391.18
             2222.59,2380.73 2248.32,2385.80 2274.05,2389.27
             2288.05,2391.16 2301.24,2395.62 2314.18,2401.08
             2321.85,2404.32 2329.65,2407.26 2337.43,2410.24
             2347.13,2413.97 2357.05,2416.45 2367.61,2416.18
             2374.91,2416.00 2382.12,2417.07 2390.30,2421.08
             2387.15,2422.19 2385.29,2423.19 2383.32,2423.48
             2380.37,2423.05 2377.31,2422.76 2374.36,2423.04
             2355.48,2421.28 2336.58,2419.75 2317.79,2417.28
             2311.00,2416.39 2304.08,2413.94 2298.02,2410.71
             2289.34,2406.09 2280.51,2404.74 2271.00,2405.72
             2258.08,2407.06 2245.14,2408.27 2232.22,2409.69
             2228.26,2409.25 2224.11,2408.92 2220.46,2411.89
             2207.28,2417.02 2193.47,2419.00 2179.64,2421.03
             2177.03,2420.65 2174.39,2422.10 2171.97,2423.14
             2163.67,2426.70 2161.97,2434.77 2169.04,2440.39
             2173.86,2444.23 2179.82,2447.14 2185.73,2449.04
             2230.43,2463.39 2276.09,2468.71 2322.82,2462.25
             2332.71,2460.88 2342.60,2459.49 2352.39,2457.60
             2369.07,2454.37 2385.69,2456.61 2402.18,2458.41
             2419.03,2460.24 2435.36,2459.80 2451.49,2454.27
             2463.82,2450.04 2476.37,2450.05 2488.89,2453.62
             2506.16,2458.55 2523.44,2463.50 2540.69,2468.51
             2545.26,2469.84 2545.27,2470.00 2546.42,2476.96
             2544.06,2476.96 2541.78,2476.57 2539.68,2476.90
             2526.00,2473.99 2512.24,2471.36 2498.75,2467.75
             2480.21,2462.78 2462.12,2464.86 2445.01,2472.05
             2436.66,2475.56 2428.71,2477.61 2419.99,2477.02
             2406.14,2476.08 2392.73,2476.09 2379.66,2482.42
             2375.34,2483.90 2369.59,2484.47 2368.54,2489.71
             2367.39,2495.45 2372.71,2498.35 2376.55,2501.33
             2389.97,2511.72 2405.91,2515.42 2422.27,2517.03
             2431.15,2517.91 2440.46,2518.28 2449.14,2516.60
             2467.74,2513.01 2484.84,2518.05 2501.95,2523.57
             2508.56,2525.70 2514.77,2529.14 2521.06,2532.19
             2522.70,2532.99 2523.96,2534.58 2525.94,2536.28
             2520.22,2540.69 2514.78,2539.70 2509.51,2537.99
             2497.54,2534.12 2485.70,2529.86 2473.72,2526.04
             2471.32,2525.28 2468.28,2525.04 2465.95,2525.81
             2452.13,2530.39 2438.20,2527.25 2424.30,2526.98
             2415.38,2526.81 2406.38,2526.34 2397.57,2526.63
             2389.60,2525.73 2382.23,2526.08 2375.44,2522.92
             2366.65,2517.41 2357.00,2514.33 2347.39,2510.65
             2335.00,2505.90 2322.47,2503.85 2309.69,2501.97
             2295.83,2499.93 2282.33,2501.93 2269.62,2507.44
             2262.79,2510.36 2256.37,2510.96 2249.26,2509.70
             2239.88,2508.03 2230.51,2505.48 2219.98,2506.85
             2226.73,2519.93 2235.54,2528.00 2250.03,2530.76
             2268.34,2534.25 2286.62,2537.35 2305.19,2538.81
             2306.51,2538.91 2307.98,2538.93 2309.10,2539.52
             2324.10,2547.45 2339.06,2555.44 2353.97,2563.52
             2355.06,2564.11 2355.90,2565.39 2356.51,2566.53
             2356.93,2567.31 2356.74,2568.41 2356.89,2570.18
             2354.41,2569.96 2352.03,2570.08 2350.12,2569.49
             2341.52,2565.93 2332.81,2562.54 2324.61,2558.19
             2311.60,2551.28 2297.76,2550.34 2283.80,2552.15
             2260.03,2555.25 2238.83,2550.22 2220.35,2534.72
             2207.30,2523.78 2193.91,2513.35 2178.46,2505.90
             2166.42,2500.10 2154.39,2494.56 2140.59,2494.13
             2137.20,2494.03 2133.47,2492.17 2130.62,2490.11
             2120.76,2482.97 2109.76,2478.39 2098.34,2474.55
             2068.14,2464.39 2037.06,2459.01 2005.34,2456.85
             1995.37,2456.17 1985.31,2455.81 1975.49,2454.15
             1963.74,2452.16 1951.99,2449.60 1940.61,2446.09
             1904.00,2434.83 1867.57,2423.00 1831.05,2411.43
             1818.53,2407.47 1806.99,2401.69 1796.69,2393.49
             1794.35,2391.62 1791.76,2390.07 1789.41,2388.20
             1771.81,2374.18 1752.09,2365.63 1729.61,2362.53
             1717.17,2360.82 1705.10,2356.50 1692.85,2353.41
             1691.67,2353.11 1690.40,2353.19 1686.88,2352.92
             1690.54,2358.41 1692.54,2363.11 1695.97,2366.24
             1706.52,2375.87 1717.11,2385.60 1728.65,2393.95
             1740.48,2402.52 1753.53,2409.43 1765.93,2417.24
             1774.05,2422.36 1781.96,2427.82 1790.00,2433.07
             1792.51,2434.71 1795.05,2436.35 1797.75,2437.63
             1823.96,2450.03 1850.53,2460.90 1879.14,2467.36
             1922.70,2477.20 1965.22,2490.67 2005.12,2511.58
             2023.67,2521.30 2042.97,2529.70 2062.34,2537.71
             2095.57,2551.46 2128.96,2564.89 2162.61,2577.58
             2185.38,2586.17 2208.88,2592.73 2233.14,2595.61
             2245.68,2597.10 2258.48,2596.36 2271.02,2597.80
             2296.16,2600.69 2321.18,2604.55 2346.27,2607.72
             2367.43,2610.39 2388.65,2612.58 2409.14,2618.95
             2413.17,2620.20 2417.13,2621.68 2421.12,2623.06
             2421.11,2622.36 2421.09,2624.47 2421.08,2625.17
             2419.21,2624.71 2417.27,2626.64 2415.47,2626.46
             2386.67,2623.53 2357.89,2620.32 2329.08,2617.51
             2323.87,2617.00 2318.37,2617.39 2313.25,2616.53
             2305.76,2618.15 2302.52,2623.30 2304.11,2630.60
             2306.59,2641.95 2313.08,2651.35 2320.30,2660.11
             2322.20,2662.41 2326.00,2663.47 2329.14,2664.35
             2334.90,2665.97 2340.87,2666.83 2346.64,2668.40
             2350.36,2669.41 2353.88,2671.14 2357.40,2672.52
             2356.68,2677.45 2354.12,2678.10 2350.80,2677.76
             2324.01,2675.01 2300.95,2665.81 2287.09,2640.77
             2283.60,2634.47 2277.71,2631.06 2271.21,2629.47
             2255.72,2625.69 2240.15,2621.98 2224.42,2619.47
             2213.36,2617.71 2202.22,2614.49 2190.77,2616.85
             2184.93,2618.05 2178.85,2618.64 2173.29,2620.66
             2166.24,2623.22 2165.69,2627.47 2170.91,2632.63
             2171.85,2633.56 2172.85,2634.54 2174.01,2635.14
             2191.91,2644.35 2201.65,2661.69 2214.47,2675.94
             2217.03,2678.78 2218.69,2682.74 2219.88,2686.46
             2224.79,2701.90 2233.69,2713.60 2249.08,2719.86
             2254.93,2722.24 2260.57,2725.15 2266.34,2727.74
             2270.67,2729.68 2273.45,2732.48 2272.49,2738.32
             2265.42,2737.66 2259.79,2735.21 2253.92,2732.62
             2248.15,2730.08 2242.45,2727.28 2237.01,2724.10
             2233.62,2722.12 2230.20,2719.68 2227.76,2716.66
             2219.62,2706.55 2211.44,2696.41 2204.16,2685.69
             2195.32,2672.66 2184.23,2662.56 2169.99,2656.00
             2164.28,2653.37 2159.86,2649.53 2156.96,2644.09
             2148.68,2628.52 2135.71,2616.83 2124.03,2604.09
             2114.73,2593.94 2102.48,2588.68 2089.56,2584.79
             2079.67,2581.82 2069.76,2578.90 2059.96,2575.68
             2045.35,2570.87 2031.14,2565.21 2019.20,2555.05
             2018.25,2554.24 2016.85,2553.97 2015.03,2553.18
             2014.07,2554.57 2012.49,2555.81 2012.42,2557.12
             2011.77,2569.94 2011.98,2582.26 2023.85,2591.26
             2038.36,2602.27 2045.86,2617.65 2048.70,2635.43
             2049.51,2640.49 2049.18,2645.35 2045.02,2649.89
             2040.11,2647.62 2038.50,2643.00 2038.31,2638.67
             2037.60,2622.31 2026.28,2612.62 2016.28,2602.05
             2013.08,2598.67 2009.45,2595.71 2006.14,2592.44
             1998.76,2585.15 1994.82,2576.29 1993.24,2566.01
             1992.03,2558.14 1989.62,2550.45 1987.90,2542.65
             1986.73,2537.32 1983.56,2533.97 1978.77,2531.54
             1971.95,2528.09 1965.48,2523.90 1958.58,2520.64
             1953.21,2518.11 1947.48,2516.28 1941.78,2514.54
             1930.65,2511.15 1919.22,2508.63 1908.28,2504.71
             1863.38,2488.60 1817.24,2476.85 1771.21,2464.57
             1737.78,2455.65 1704.90,2444.62 1671.98,2433.91
             1661.59,2430.53 1651.42,2425.88 1641.94,2420.43
             1633.09,2415.34 1624.81,2408.97 1617.16,2402.17
             1607.17,2393.29 1597.42,2384.21 1585.41,2378.12
             1581.99,2376.39 1578.21,2375.36 1574.60,2374.01
             1574.60,2374.01 1572.85,2375.43 1572.85,2375.43
             1574.05,2378.58 1574.67,2382.14 1576.56,2384.80
             1581.19,2391.29 1585.98,2397.76 1591.46,2403.53
             1602.94,2415.61 1614.82,2427.31 1626.68,2439.01
             1655.68,2467.63 1690.05,2488.71 1725.45,2508.15
             1740.52,2516.43 1757.31,2519.84 1774.47,2520.61
             1786.45,2521.15 1798.47,2521.44 1810.46,2521.21
             1838.44,2520.68 1865.50,2525.69 1892.08,2533.87
             1904.18,2537.59 1916.11,2541.92 1928.31,2545.26
             1948.83,2550.87 1959.91,2565.44 1966.00,2584.47
             1968.58,2592.53 1971.15,2600.05 1977.43,2606.18
             1981.44,2610.09 1983.85,2615.36 1983.70,2622.86
             1975.69,2620.28 1971.33,2614.94 1966.63,2609.52
             1956.10,2597.36 1948.72,2583.20 1940.54,2569.59
             1934.86,2560.13 1926.33,2555.92 1916.40,2556.44
             1902.96,2555.74 1890.73,2553.37 1878.30,2549.70
             1869.68,2547.16 1861.10,2544.46 1852.43,2542.07
             1849.58,2541.28 1846.52,2540.92 1843.56,2540.92
             1837.92,2540.92 1830.68,2545.72 1829.18,2550.07
             1827.40,2555.21 1830.02,2563.20 1835.37,2566.80
             1838.91,2569.18 1842.92,2571.22 1847.01,2572.36
             1855.65,2574.78 1864.41,2577.12 1873.27,2578.34
             1881.49,2579.47 1888.75,2582.17 1895.22,2587.13
             1902.62,2592.81 1910.13,2598.39 1917.12,2604.54
             1927.17,2613.39 1937.82,2620.90 1950.09,2626.68
             1987.76,2644.44 2016.87,2672.45 2041.34,2705.63
             2043.71,2708.85 2045.72,2712.37 2048.30,2715.40
             2062.54,2732.12 2067.36,2752.39 2070.48,2773.34
             2072.39,2786.18 2074.88,2798.96 2076.11,2811.86
             2076.82,2819.33 2076.08,2827.08 2074.91,2834.53
             2074.36,2838.02 2071.25,2841.11 2069.37,2844.26
             2062.66,2842.12 2061.48,2837.83 2061.54,2832.86
             2061.48,2827.20 2060.74,2821.49 2061.26,2815.90
             2057.71,2777.13 2044.21,2742.17 2020.52,2711.21
             2009.71,2697.08 1994.41,2688.60 1979.96,2679.13
             1956.27,2663.62 1932.22,2648.66 1908.63,2633.00
             1886.84,2618.53 1864.29,2606.06 1838.54,2599.93
             1827.23,2597.23 1816.29,2592.98 1805.16,2589.51
             1801.72,2588.44 1798.22,2587.59 1794.24,2586.50
             1789.72,2596.58 1791.22,2606.13 1794.49,2615.07
             1801.48,2634.24 1811.85,2650.66 1831.21,2660.39
             1844.25,2666.95 1856.37,2675.40 1868.67,2683.36
             1876.28,2688.28 1882.53,2694.69 1887.33,2702.56
             1890.96,2708.52 1895.29,2714.06 1899.30,2719.79
             1908.54,2732.97 1916.23,2746.76 1919.77,2762.80
             1922.42,2774.79 1926.97,2786.36 1929.85,2798.31
             1932.27,2808.38 1929.74,2818.16 1925.41,2827.41
             1924.91,2828.47 1923.88,2829.28 1922.24,2831.22
             1918.43,2822.48 1917.19,2814.30 1917.44,2806.17
             1917.04,2793.12 1913.62,2781.65 1909.12,2769.62
             1899.17,2743.01 1880.22,2724.58 1858.51,2708.00
             1846.95,2699.17 1834.64,2692.18 1820.07,2689.85
             1817.77,2689.48 1815.47,2689.04 1813.15,2688.87
             1801.90,2688.00 1792.19,2690.74 1792.35,2707.33
             1792.50,2722.51 1794.10,2736.71 1800.59,2750.94
             1807.74,2766.62 1812.32,2783.51 1817.26,2800.10
             1819.71,2808.35 1823.32,2815.66 1829.18,2821.72
             1841.91,2834.89 1854.97,2847.75 1867.75,2860.86
             1872.62,2865.85 1877.55,2870.88 1881.69,2876.46
             1889.09,2886.45 1889.41,2897.65 1883.15,2910.66
             1877.23,2907.75 1875.23,2902.20 1875.46,2896.76
             1874.96,2885.15 1869.92,2877.39 1862.35,2869.92
             1854.51,2862.17 1846.73,2854.49 1836.84,2849.24
             1833.68,2847.56 1830.92,2844.93 1828.37,2842.35
             1821.35,2835.22 1820.73,2834.83 1808.60,2834.12
             1804.22,2840.43 1802.81,2847.23 1807.25,2854.20
             1810.78,2859.75 1810.64,2865.10 1809.26,2871.33
             1806.69,2882.99 1805.08,2894.87 1803.25,2906.68
             1801.91,2915.28 1800.48,2923.82 1794.94,2930.93
             1793.11,2933.28 1790.72,2936.41 1787.64,2934.16
             1785.71,2932.75 1785.28,2929.23 1784.30,2926.62
             1784.10,2926.07 1784.27,2925.23 1784.04,2924.67
             1792.08,2909.35 1788.20,2892.09 1791.90,2875.94
             1795.36,2860.81 1791.23,2844.96 1785.83,2831.08
             1777.93,2814.81 1774.49,2797.80 1772.44,2780.24
             1771.94,2775.97 1771.79,2771.53 1772.40,2767.30
             1775.09,2748.40 1771.66,2729.95 1766.60,2712.19
             1759.37,2692.54 1758.04,2671.83 1754.77,2651.50
             1752.29,2636.09 1750.94,2620.40 1750.54,2604.80
             1750.10,2587.70 1744.06,2574.72 1729.14,2565.74
             1708.30,2553.20 1687.77,2540.17 1667.12,2527.32
             1647.03,2514.82 1626.87,2502.43 1606.91,2489.72
             1594.71,2481.96 1581.45,2476.71 1567.95,2471.92
             1565.37,2471.00 1562.47,2470.96 1559.43,2470.47
             1559.30,2472.70 1558.92,2473.77 1559.23,2474.59
             1567.07,2495.46 1574.91,2516.33 1582.94,2537.13
             1585.34,2543.34 1588.43,2549.26 1590.97,2555.42
             1593.97,2562.68 1594.86,2569.84 1592.02,2577.72
             1590.17,2582.87 1590.75,2588.87 1590.10,2594.47
             1589.66,2598.27 1588.96,2602.03 1588.32,2606.21
             1582.08,2604.76 1580.41,2600.97 1579.94,2596.45
             1579.39,2591.15 1579.31,2585.81 1578.73,2580.51
             1577.58,2569.93 1577.10,2559.17 1574.63,2548.89
             1573.15,2542.74 1569.13,2536.78 1564.97,2531.80
             1558.20,2523.69 1553.98,2514.62 1550.49,2504.78
             1544.10,2486.80 1538.75,2468.72 1538.36,2449.46
             1538.31,2447.22 1537.89,2444.58 1536.66,2442.82
             1529.63,2432.81 1523.96,2421.86 1513.10,2414.76
             1503.08,2408.22 1493.85,2400.47 1488.15,2389.34
             1486.69,2386.50 1483.65,2384.50 1481.50,2381.97
             1478.29,2378.18 1474.36,2374.69 1472.26,2370.33
             1467.14,2359.74 1457.77,2354.01 1448.55,2348.16
             1442.94,2344.60 1440.14,2345.45 1437.87,2351.98
             1432.52,2367.38 1427.88,2383.03 1423.12,2398.62
             1422.57,2400.44 1422.82,2402.62 1423.12,2404.56
             1426.04,2422.98 1428.78,2441.43 1432.19,2459.76
             1433.51,2466.88 1435.71,2474.03 1438.68,2480.63
             1448.95,2503.41 1459.82,2525.92 1470.29,2548.61
             1476.55,2562.17 1485.42,2573.51 1496.74,2583.28
             1502.98,2588.66 1509.01,2594.76 1513.52,2601.60
             1523.09,2616.12 1536.03,2626.02 1551.76,2632.55
             1560.67,2636.25 1569.77,2639.58 1578.97,2642.50
             1607.76,2651.63 1628.83,2671.13 1648.13,2693.18
             1654.46,2700.41 1660.78,2707.78 1667.96,2714.11
             1676.36,2721.53 1681.93,2729.83 1683.12,2741.22
             1683.84,2748.13 1685.30,2755.11 1687.48,2761.72
             1692.09,2775.66 1693.08,2789.62 1690.59,2804.09
             1687.86,2819.93 1684.19,2835.38 1676.69,2849.77
             1671.37,2859.98 1664.71,2869.12 1655.58,2876.07
             1638.61,2888.98 1621.34,2901.50 1604.15,2914.12
             1602.86,2913.17 1601.25,2915.57 1599.98,2916.18
             1595.99,2913.97 1595.80,2911.44 1598.87,2908.96
             1616.23,2894.92 1624.13,2875.14 1631.91,2855.21
             1634.44,2848.72 1637.32,2842.31 1640.63,2836.17
             1648.44,2821.67 1649.95,2805.65 1651.80,2789.82
             1653.00,2779.60 1650.98,2769.19 1652.85,2758.85
             1652.65,2749.75 1649.85,2742.22 1643.46,2735.48
             1626.48,2717.58 1609.95,2699.31 1588.92,2685.80
             1579.90,2680.00 1570.64,2675.16 1560.48,2671.53
             1550.83,2668.09 1541.81,2662.89 1532.55,2658.40
             1528.17,2656.28 1524.29,2652.79 1517.40,2653.42
             1516.93,2657.17 1517.60,2660.80 1518.81,2663.85
             1528.38,2687.93 1530.05,2712.89 1528.95,2738.51
             1528.33,2753.10 1529.74,2767.82 1530.83,2782.44
             1532.05,2798.73 1527.92,2813.24 1519.26,2827.02
             1507.56,2845.64 1496.81,2864.85 1485.26,2883.56
             1474.99,2900.20 1461.73,2913.85 1445.27,2924.85
             1425.63,2937.99 1406.93,2952.54 1387.74,2966.37
             1386.20,2967.48 1384.04,2967.73 1382.16,2968.39
             1381.67,2967.80 1381.18,2967.21 1380.70,2966.62
             1382.77,2963.40 1384.36,2959.71 1386.99,2957.05
             1396.08,2947.84 1405.95,2939.37 1414.74,2929.89
             1423.55,2920.38 1431.49,2910.04 1439.68,2899.96
             1447.25,2890.65 1454.97,2881.44 1462.05,2871.77
             1474.35,2855.00 1482.45,2835.98 1490.39,2816.91
             1494.61,2806.78 1498.53,2796.51 1503.08,2786.54
             1508.71,2774.21 1508.84,2761.36 1507.64,2748.30
             1506.00,2730.51 1500.44,2713.83 1493.30,2697.55
             1487.95,2685.35 1483.41,2672.79 1477.76,2660.75
             1473.98,2652.70 1468.82,2645.29 1464.39,2637.54
             1461.59,2632.64 1459.01,2627.62 1456.29,2622.67
             1450.22,2611.60 1443.79,2600.70 1438.13,2589.42
             1432.49,2578.15 1427.01,2566.71 1422.55,2554.93
             1417.33,2541.13 1411.42,2527.81 1402.68,2515.88
             1395.92,2506.65 1393.80,2506.18 1383.30,2509.72
             1378.27,2511.42 1375.57,2514.69 1374.73,2519.69
             1374.29,2522.31 1373.95,2524.98 1373.87,2527.64
             1373.47,2540.29 1372.55,2552.97 1372.99,2565.60
             1373.54,2581.16 1378.96,2595.54 1386.11,2609.27
             1391.19,2619.02 1396.94,2628.52 1400.92,2638.71
             1412.49,2668.40 1407.48,2696.22 1389.61,2722.07
             1388.32,2723.94 1386.38,2725.41 1384.60,2726.89
             1377.20,2733.04 1369.75,2739.12 1362.32,2745.23
             1361.81,2744.81 1361.40,2746.39 1360.83,2746.53
             1358.16,2745.86 1354.45,2749.08 1352.95,2747.99
             1349.45,2745.45 1351.76,2741.77 1353.98,2739.37
             1356.43,2736.72 1359.39,2734.36 1362.51,2732.55
             1379.97,2722.44 1389.74,2707.67 1391.12,2687.36
             1390.69,2681.07 1393.07,2674.85 1393.80,2668.57
             1395.04,2657.78 1393.52,2647.10 1389.28,2637.31
             1383.58,2625.68 1376.94,2614.51 1371.02,2602.98
             1368.30,2597.67 1366.89,2591.66 1363.93,2586.52
             1354.71,2570.55 1354.13,2553.15 1353.44,2535.37
             1352.72,2516.77 1355.63,2499.66 1365.90,2483.91
             1370.44,2476.94 1374.18,2469.46 1378.40,2462.27
             1381.73,2456.61 1383.44,2450.55 1382.47,2444.08
             1381.04,2434.54 1379.74,2424.92 1377.29,2415.62
             1374.08,2403.39 1370.07,2391.35 1365.85,2379.43
             1364.24,2374.90 1361.34,2370.74 1358.57,2366.73
             1355.13,2361.75 1354.46,2356.45 1355.31,2350.68
             1361.27,2310.13 1367.24,2269.59 1373.11,2229.04
             1377.64,2197.73 1382.02,2166.39 1386.53,2135.07
             1386.30,2133.48 1387.59,2131.98 1388.14,2130.43
             1387.99,2128.68 1387.84,2126.93 1387.69,2125.19
             1393.29,2086.65 1398.85,2048.10 1404.49,2009.56
             1412.83,1952.57 1421.16,1895.56 1429.61,1838.59
             1432.63,1818.20 1435.97,1797.86 1439.18,1777.49
             1439.07,1776.54 1438.95,1775.58 1438.84,1774.63
             1441.10,1757.82 1443.20,1740.99 1445.64,1724.20
             1454.71,1661.95 1463.87,1599.71 1473.05,1537.47
             1472.18,1531.56 1475.18,1525.72 1476.25,1519.84
             1475.52,1515.00 1477.72,1510.15 1478.45,1505.31
             1481.57,1482.58 1484.53,1459.83 1487.83,1437.13
             1496.10,1380.19 1504.53,1323.27 1512.87,1266.34
             1516.39,1242.35 1519.86,1218.35 1523.35,1194.35
             1522.79,1191.32 1524.47,1188.29 1525.03,1185.26
             1529.29,1155.59 1533.50,1125.91 1537.83,1096.25
             1546.12,1039.55 1554.49,982.86 1562.80,926.17
             1571.12,869.48 1579.39,812.78 1587.70,756.09
             1596.06,699.07 1604.46,642.05 1612.84,585.03
             1617.15,555.70 1621.42,526.36 1625.72,497.02
             1633.40,444.67 1641.10,392.31 1648.79,339.96
             1650.29,329.74 1651.56,319.49 1653.33,309.32
             1652.72,305.84 1655.32,302.30 1657.13,299.25
             1663.74,288.11 1671.81,277.69 1677.25,266.03
             1688.37,242.21 1698.44,217.87 1708.42,193.52
             1721.06,162.70 1733.13,131.65 1745.53,100.73
             1750.87,87.44 1756.61,74.29 1757.86,59.77
             1757.72,58.19 1757.00,56.67 1759.97,55.16
             1764.22,74.98 1763.12,94.95 1760.72,114.73
             1758.33,134.47 1754.34,154.02 1750.84,174.94
             1771.23,175.42 1790.33,168.66 1810.28,164.66
             1808.63,165.85 1807.12,167.39 1805.30,168.18
             1795.22,172.54 1784.99,176.57 1774.94,181.00
             1765.81,185.02 1756.81,189.33 1747.82,193.65
             1743.76,195.60 1741.22,198.82 1739.72,203.25
             1716.08,273.30 1690.23,342.64 1672.15,414.44
             1666.47,437.01 1662.31,459.97 1657.56,482.78
             1657.03,485.33 1657.17,488.03 1656.96,491.21
             1658.79,491.54 1660.38,492.23 1661.84,492.02
             1689.37,488.07 1715.88,480.70 1741.12,468.83
             1747.23,465.96 1751.30,461.80 1754.41,455.99
             1760.67,444.27 1763.75,431.63 1764.24,418.59
             1763.48,398.41 1769.45,379.03 1774.88,359.76
             1778.58,346.66 1782.32,333.57 1786.25,319.75
             1790.11,328.13 1789.74,336.85 1790.26,345.14
             1791.53,365.74 1792.14,386.39 1789.28,407.00
             1788.14,415.21 1787.90,423.65 1792.28,432.78
             1794.70,430.85 1797.04,429.33 1798.97,427.41
             1814.68,411.83 1827.68,394.11 1839.34,375.40
             1848.50,360.69 1857.59,345.93 1866.36,330.99
             1891.27,288.54 1925.61,255.72 1968.45,231.93
             1988.52,220.78 2009.39,211.04 2029.97,200.83
             2032.23,199.71 2035.04,199.66 2037.59,199.12
             2037.59,199.12 2037.33,199.06 2037.33,199.06
             2030.89,205.75 2023.98,212.04 2018.10,219.20
             1997.99,243.63 1978.20,268.33 1958.38,293.00
             1955.49,296.60 1953.08,300.58 1950.04,304.96
             1955.25,309.77 1960.89,310.10 1966.94,309.99
             1972.16,309.90 1977.39,310.84 1982.63,311.13
             1987.89,311.42 1993.23,312.10 1998.40,311.47
             2005.31,310.63 2012.08,308.66 2018.92,307.23
             2022.32,306.52 2025.74,305.92 2029.42,306.29
             2006.58,321.19 1984.10,336.81 1954.60,333.00
             1951.64,332.62 1948.59,332.58 1945.62,332.83
             1936.84,332.11 1930.22,336.86 1925.85,345.53
             1915.05,366.94 1903.76,388.12 1891.94,408.98
             1875.97,437.17 1857.57,463.69 1835.30,487.40
             1809.57,514.79 1779.77,535.88 1744.24,548.92
             1728.98,554.53 1714.16,561.55 1699.59,568.84
             1679.76,578.76 1667.14,594.58 1661.82,616.54
             1658.78,629.11 1653.66,641.17 1649.75,653.54
             1646.83,662.76 1646.00,672.24 1646.95,681.76
             1652.66,684.02 1657.45,682.09 1661.63,679.51
             1667.55,675.85 1673.34,671.80 1678.53,667.18
             1689.88,657.08 1702.19,648.79 1716.81,644.26
             1725.45,641.58 1732.28,636.52 1736.89,628.73
             1742.15,619.87 1747.22,610.90 1752.38,601.97
             1751.62,600.65 1753.91,599.33 1756.19,598.33
             1756.19,601.18 1756.52,604.07 1756.14,606.86
             1753.19,628.26 1747.49,648.32 1731.60,664.46
             1721.82,674.39 1712.91,685.29 1704.52,696.44
             1695.72,708.13 1685.74,717.93 1672.24,724.00
             1667.42,726.17 1662.87,729.10 1658.52,732.15
             1644.28,742.15 1638.91,756.26 1638.64,773.36
             1638.32,794.33 1636.58,815.27 1636.05,836.23
             1635.59,854.51 1648.26,864.75 1666.50,861.70
             1676.59,860.01 1685.48,855.66 1693.67,849.70
             1705.66,840.99 1715.55,830.18 1724.19,818.27
             1736.72,800.98 1749.08,783.63 1766.60,770.75
             1769.08,768.93 1770.55,765.48 1771.97,762.53
             1780.50,744.81 1784.39,725.96 1784.39,706.41
             1784.39,695.14 1787.03,684.72 1791.19,674.42
             1801.97,647.76 1815.55,622.61 1831.12,598.44
             1839.32,585.71 1846.64,572.41 1855.08,558.15
             1856.11,562.78 1857.49,566.76 1857.83,570.84
             1859.33,588.64 1857.80,606.08 1850.90,622.82
             1847.22,631.75 1843.45,640.71 1840.69,649.93
             1837.74,659.77 1835.02,669.85 1833.81,680.01
             1831.97,695.52 1831.47,711.20 1830.54,726.81
             1830.37,729.67 1830.86,732.57 1831.12,736.72
             1834.25,734.92 1836.69,734.00 1838.52,732.39
             1845.53,726.24 1852.90,720.38 1859.13,713.50
             1880.56,689.82 1905.37,670.35 1932.20,653.30
             1949.91,642.04 1968.12,631.52 1985.54,619.83
             2002.11,608.70 2018.33,596.98 2033.97,584.59
             2051.77,570.47 2064.05,551.75 2073.91,531.50
             2075.56,528.11 2075.88,523.85 2076.00,519.96
             2075.69,509.32 2075.92,498.65 2075.68,488.01
             2075.34,478.77 2073.92,470.12 2070.45,461.77
             2065.46,449.78 2060.29,437.86 2054.90,426.04
             2048.22,411.40 2045.07,396.45 2048.72,380.38
             2049.73,375.93 2048.00,371.18 2050.94,366.34
             2050.14,369.31 2052.68,372.26 2053.32,375.27
             2058.15,397.93 2068.88,417.65 2083.28,435.54
             2089.87,443.73 2098.46,445.55 2108.97,443.49
             2111.16,437.27 2113.20,430.98 2115.58,424.81
             2121.34,409.91 2126.72,394.83 2133.24,380.27
             2141.28,362.32 2153.51,347.35 2169.60,335.93
             2186.61,323.86 2201.38,309.80 2213.36,292.57
             2222.38,279.60 2234.27,269.30 2248.20,261.59
             2249.84,260.68 2251.62,260.03 2254.14,258.90
             2256.20,270.23 2255.63,280.79 2254.89,291.28
             2254.50,296.88 2253.10,302.45 2251.79,307.94
             2249.81,316.23 2245.69,323.28 2239.36,329.17
             2230.84,337.10 2222.96,345.62 2216.98,356.33
             2222.37,363.02 2229.25,367.38 2237.13,368.52
             2252.40,370.73 2265.53,377.09 2277.98,386.89
             2270.48,391.45 2262.72,395.13 2254.00,391.04
             2238.09,383.58 2221.92,387.98 2205.83,389.20
             2199.61,388.73 2195.79,393.42 2193.68,399.43
             2185.52,422.67 2175.77,445.44 2169.05,469.08
             2152.63,526.87 2122.14,576.13 2081.75,619.86
             2079.95,621.81 2078.17,623.80 2076.47,625.84
             2076.07,625.37 2076.01,627.06 2075.76,627.79
             2077.18,633.11 2081.83,634.53 2086.27,635.76
             2100.27,639.67 2114.20,640.22 2128.69,637.14
             2158.94,630.71 2187.74,621.10 2214.04,604.46
             2232.10,593.04 2252.28,587.40 2273.34,584.87
             2276.49,584.49 2279.79,585.38 2283.02,585.68
             2283.02,585.68 2283.09,585.54 2283.09,585.54
             2283.09,585.54 2286.87,589.29 2286.87,589.29 Z" />
</svg>
